<svg width="22" height="26" viewBox="0 0 22 26" fill="none" xmlns="http://www.w3.org/2000/svg">
<path d="M12.4585 4.52833C12.3148 4.52833 12.1769 4.47122 12.0753 4.36958C11.9736 4.26793 11.9165 4.13007 11.9165 3.98633V2.16733C11.9165 1.87996 11.8024 1.60437 11.5992 1.40118C11.396 1.19798 11.1204 1.08383 10.833 1.08383C10.5457 1.08383 10.2701 1.19798 10.0669 1.40118C9.86367 1.60437 9.74952 1.87996 9.74952 2.16733V3.98733C9.75266 4.0604 9.74098 4.13334 9.71518 4.20178C9.68938 4.27021 9.65 4.33272 9.59941 4.38553C9.54882 4.43835 9.48806 4.48038 9.4208 4.50909C9.35353 4.5378 9.28115 4.5526 9.20802 4.5526C9.13488 4.5526 9.0625 4.5378 8.99524 4.50909C8.92797 4.48038 8.86721 4.43835 8.81662 4.38553C8.76603 4.33272 8.72665 4.27021 8.70085 4.20178C8.67505 4.13334 8.66337 4.0604 8.66652 3.98733V2.16733C8.67869 1.60079 8.91229 1.06157 9.31726 0.665205C9.72223 0.26884 10.2664 0.046875 10.833 0.046875C11.3997 0.046875 11.9438 0.26884 12.3488 0.665205C12.7537 1.06157 12.9873 1.60079 12.9995 2.16733V3.98733C12.9995 4.13081 12.9425 4.26841 12.8411 4.36987C12.7396 4.47133 12.602 4.52833 12.4585 4.52833Z" fill="white"/>
<path d="M10.8335 26.0008C9.82864 25.9987 8.8655 25.5986 8.15485 24.8882C7.4442 24.1777 7.04389 23.2147 7.04152 22.2098C7.03837 22.1367 7.05005 22.0638 7.07585 21.9954C7.10165 21.9269 7.14103 21.8644 7.19162 21.8116C7.24221 21.7588 7.30297 21.7168 7.37024 21.688C7.4375 21.6593 7.50988 21.6445 7.58302 21.6445C7.65615 21.6445 7.72853 21.6593 7.7958 21.688C7.86306 21.7168 7.92382 21.7588 7.97441 21.8116C8.025 21.8644 8.06438 21.9269 8.09018 21.9954C8.11598 22.0638 8.12766 22.1367 8.12452 22.2098C8.12452 22.9281 8.40987 23.6171 8.91782 24.125C9.42576 24.6329 10.1147 24.9183 10.833 24.9183C11.5514 24.9183 12.2403 24.6329 12.7482 24.125C13.2562 23.6171 13.5415 22.9281 13.5415 22.2098C13.5384 22.1367 13.5501 22.0638 13.5759 21.9954C13.6016 21.9269 13.641 21.8644 13.6916 21.8116C13.7422 21.7588 13.803 21.7168 13.8702 21.688C13.9375 21.6593 14.0099 21.6445 14.083 21.6445C14.1562 21.6445 14.2285 21.6593 14.2958 21.688C14.3631 21.7168 14.4238 21.7588 14.4744 21.8116C14.525 21.8644 14.5644 21.9269 14.5902 21.9954C14.616 22.0638 14.6277 22.1367 14.6245 22.2098C14.6221 23.2145 14.222 24.1774 13.5115 24.8878C12.8011 25.5983 11.8382 25.9984 10.8335 26.0008Z" fill="white"/>
<path d="M20.0419 22.7505H1.62488C1.2927 22.7505 0.968512 22.6487 0.695976 22.4587C0.423441 22.2688 0.21565 22 0.100593 21.6884C-0.0144633 21.3767 -0.0312594 21.0374 0.0524675 20.7159C0.136194 20.3945 0.316422 20.1064 0.568875 19.8905C1.40904 19.1831 2.08435 18.3006 2.54748 17.3047C3.0106 16.3089 3.25034 15.2238 3.24988 14.1255V10.8335C3.24988 8.82223 4.04885 6.89334 5.47103 5.47116C6.89321 4.04897 8.82211 3.25 10.8334 3.25C12.8446 3.25 14.7735 4.04897 16.1957 5.47116C17.6179 6.89334 18.4169 8.82223 18.4169 10.8335V14.1245C18.4158 15.2211 18.6546 16.3046 19.1163 17.2993C19.578 18.2939 20.2516 19.1755 21.0899 19.8825C21.3449 20.0972 21.5276 20.3852 21.6134 20.7073C21.6992 21.0294 21.6839 21.3701 21.5695 21.6832C21.4551 21.9963 21.2471 22.2667 20.9739 22.4576C20.7006 22.6485 20.3752 22.7508 20.0419 22.7505ZM10.8329 4.3335C9.10954 4.33535 7.45731 5.02077 6.23873 6.23935C5.02014 7.45794 4.33473 9.11016 4.33288 10.8335V14.1245C4.33408 15.3786 4.06119 16.6179 3.53331 17.7555C3.00544 18.8931 2.23533 19.9017 1.27688 20.7105C1.1912 20.7817 1.12961 20.8777 1.10051 20.9852C1.07142 21.0928 1.07623 21.2067 1.11431 21.3114C1.15239 21.4161 1.22186 21.5065 1.31324 21.5702C1.40463 21.634 1.51346 21.6679 1.62488 21.6675H20.0419C20.1524 21.6672 20.2603 21.6332 20.3509 21.5698C20.4416 21.5065 20.5107 21.417 20.549 21.3133C20.5873 21.2096 20.593 21.0966 20.5652 20.9896C20.5375 20.8826 20.4777 20.7866 20.3939 20.7145C19.4346 19.9054 18.6637 18.8966 18.1352 17.7584C17.6066 16.6203 17.3331 15.3804 17.3339 14.1255V10.8335C17.332 9.11016 16.6466 7.45794 15.428 6.23935C14.2094 5.02077 12.5562 4.33535 10.8329 4.3335Z" fill="white"/>
</svg>
