<svg width="28" height="28" viewBox="0 0 28 28" fill="none" xmlns="http://www.w3.org/2000/svg">
<path d="M14.9173 11.7765C15.0177 11.7768 15.114 11.8168 15.185 11.8878C15.256 11.9588 15.296 12.0551 15.2963 12.1555C15.3023 12.2951 15.362 12.427 15.4629 12.5236C15.5638 12.6203 15.6981 12.6742 15.8378 12.6742C15.9775 12.6742 16.1118 12.6203 16.2127 12.5236C16.3136 12.427 16.3733 12.2951 16.3793 12.1555C16.3793 11.7675 16.2252 11.3954 15.9508 11.121C15.6764 10.8466 15.3043 10.6925 14.9163 10.6925H14.5373V10.3135C14.5373 10.1697 14.4802 10.0319 14.3785 9.93024C14.2769 9.82859 14.139 9.77148 13.9953 9.77148C13.8516 9.77148 13.7137 9.82859 13.612 9.93024C13.5104 10.0319 13.4533 10.1697 13.4533 10.3135V10.6925H13.2583C12.8273 10.6925 12.414 10.8637 12.1093 11.1684C11.8045 11.4732 11.6333 11.8865 11.6333 12.3175V13.0755C11.633 13.4598 11.784 13.8288 12.0537 14.1026C12.3234 14.3764 12.69 14.533 13.0743 14.5385H13.4533V16.2175H13.0743C12.9739 16.2172 12.8776 16.1772 12.8066 16.1062C12.7356 16.0352 12.6955 15.9389 12.6953 15.8385C12.6893 15.6989 12.6296 15.567 12.5287 15.4704C12.4278 15.3737 12.2935 15.3198 12.1538 15.3198C12.0141 15.3198 11.8798 15.3737 11.7789 15.4704C11.678 15.567 11.6183 15.6989 11.6123 15.8385C11.6123 16.2265 11.7664 16.5986 12.0408 16.873C12.3152 17.1474 12.6873 17.3015 13.0753 17.3015H13.4543V17.6805C13.4543 17.8242 13.5114 17.9621 13.613 18.0637C13.7147 18.1654 13.8526 18.2225 13.9963 18.2225C14.1401 18.2225 14.2779 18.1654 14.3795 18.0637C14.4812 17.9621 14.5383 17.8242 14.5383 17.6805V17.3015H14.7333C15.1643 17.3015 15.5776 17.1303 15.8824 16.8255C16.1871 16.5208 16.3583 16.1075 16.3583 15.6765V14.9185C16.3599 14.5333 16.2095 14.1631 15.9396 13.8882C15.6698 13.6133 15.3024 13.456 14.9173 13.4505H14.5383V11.7715L14.9173 11.7765ZM14.9173 14.5385C15.0178 14.5385 15.1142 14.5784 15.1853 14.6495C15.2564 14.7206 15.2963 14.817 15.2963 14.9175V15.6545C15.2963 15.7256 15.2823 15.7961 15.255 15.8618C15.2278 15.9275 15.1878 15.9871 15.1375 16.0374C15.0871 16.0876 15.0274 16.1275 14.9616 16.1546C14.8959 16.1817 14.8254 16.1956 14.7543 16.1955H14.5373V14.5385H14.9173ZM13.4533 13.4505H13.0743C12.9738 13.4505 12.8774 13.4106 12.8063 13.3395C12.7352 13.2684 12.6953 13.172 12.6953 13.0715V12.3345C12.6955 12.1909 12.7528 12.0533 12.8544 11.9519C12.956 11.8504 13.0937 11.7935 13.2373 11.7935H13.4533V13.4505Z" fill="white"/>
<path d="M19.8471 9.7554C18.7215 8.20346 17.0268 7.16071 15.1341 6.85541C14.3803 6.7383 13.6129 6.7383 12.8591 6.85541C11.3555 7.09835 9.96656 7.80875 8.88953 8.88579C7.81249 9.96282 7.10207 11.3518 6.85913 12.8554C6.74357 13.6093 6.74357 14.3765 6.85913 15.1304C7.03851 16.2509 7.48018 17.3131 8.14813 18.2304C8.59718 18.8574 9.14615 19.4064 9.77313 19.8554C10.6914 20.5216 11.7532 20.9631 12.8731 21.1444C13.6271 21.2596 14.3942 21.2596 15.1481 21.1444C16.2681 20.9632 17.3299 20.5217 18.2481 19.8554C18.875 19.4063 19.424 18.8573 19.8731 18.2304C20.544 17.3107 20.9878 16.2454 21.1681 15.1214C21.2835 14.3658 21.2835 13.597 21.1681 12.8414C20.9761 11.721 20.5233 10.6614 19.8461 9.7484L19.8471 9.7554ZM20.0631 14.9664C19.9155 15.9204 19.5444 16.8261 18.9801 17.6094C18.6024 18.1356 18.1413 18.5966 17.6151 18.9744C16.8374 19.538 15.9371 19.9091 14.9881 20.0574C14.3439 20.1564 13.6883 20.1564 13.0441 20.0574C12.0914 19.9105 11.1872 19.5393 10.4061 18.9744C9.87989 18.5967 9.41884 18.1356 9.04114 17.6094C8.47772 16.8292 8.10631 15.9271 7.95712 14.9764C7.8585 14.3318 7.8585 13.676 7.95712 13.0314C8.10469 12.0802 8.47625 11.1778 9.04114 10.3984C9.42335 9.87291 9.88563 9.41061 10.4111 9.0284C11.1889 8.46484 12.0892 8.0937 13.0381 7.9454C13.6824 7.84641 14.3379 7.84641 14.9821 7.9454C15.9331 8.09304 16.8355 8.4642 17.6151 9.0284C18.1407 9.41059 18.6029 9.87289 18.9851 10.3984C19.5492 11.176 19.9207 12.0763 20.0691 13.0254C20.1677 13.6697 20.1677 14.3252 20.0691 14.9694L20.0631 14.9664Z" fill="white"/>
<path d="M27.453 10.298H24.511C24.3767 9.91755 24.2212 9.54496 24.045 9.18201L26.13 7.097C26.2309 6.99546 26.2875 6.85813 26.2875 6.715C26.2875 6.57186 26.2309 6.43455 26.13 6.33301L21.661 1.864C21.5595 1.76312 21.4221 1.7065 21.279 1.7065C21.1359 1.7065 20.9985 1.76312 20.897 1.864L18.812 3.94901C18.4487 3.77509 18.0761 3.62119 17.696 3.48801V0.541C17.696 0.397518 17.639 0.25992 17.5375 0.158463C17.4361 0.0570053 17.2985 0 17.155 0H10.839C10.6955 0 10.5579 0.0570053 10.4565 0.158463C10.355 0.25992 10.298 0.397518 10.298 0.541V3.48801C9.91787 3.62119 9.5453 3.77508 9.18199 3.94901L7.10201 1.86301C7.00046 1.76213 6.86314 1.70551 6.72 1.70551C6.57687 1.70551 6.43954 1.76213 6.338 1.86301L1.869 6.332C1.76788 6.43341 1.71109 6.57079 1.71109 6.714C1.71109 6.85722 1.76788 6.9946 1.869 7.09601L3.95399 9.181C3.77801 9.54404 3.62243 9.91661 3.48799 10.297H0.541C0.397518 10.297 0.259904 10.354 0.158447 10.4555C0.0569901 10.5569 0 10.6945 0 10.838V17.154C0 17.2975 0.0569901 17.4351 0.158447 17.5365C0.259904 17.638 0.397518 17.695 0.541 17.695H3.48799C3.62107 18.0732 3.77499 18.4438 3.94901 18.805L1.86299 20.891C1.76211 20.9925 1.70549 21.1299 1.70549 21.273C1.70549 21.4161 1.76211 21.5535 1.86299 21.655L6.332 26.124C6.43341 26.2251 6.57079 26.2819 6.714 26.2819C6.85722 26.2819 6.99458 26.2251 7.09599 26.124L9.17599 24.044C9.53878 24.2206 9.91139 24.3761 10.292 24.51V27.457C10.292 27.6007 10.3491 27.7386 10.4507 27.8403C10.5524 27.9419 10.6903 27.999 10.834 27.999H17.156C17.2271 27.999 17.2976 27.985 17.3633 27.9577C17.429 27.9305 17.4886 27.8905 17.5389 27.8402C17.5891 27.7899 17.629 27.7301 17.6561 27.6643C17.6832 27.5986 17.6971 27.5281 17.697 27.457V24.507C18.0776 24.3732 18.4502 24.2176 18.813 24.041L20.893 26.121C20.9944 26.2221 21.1318 26.2789 21.275 26.2789C21.4182 26.2789 21.5556 26.2221 21.657 26.121L26.126 21.652C26.2269 21.5505 26.2835 21.4131 26.2835 21.27C26.2835 21.1269 26.2269 20.9895 26.126 20.888L24.041 18.803C24.215 18.4418 24.3689 18.0712 24.502 17.693H27.449C27.5926 17.693 27.7303 17.636 27.8319 17.5346C27.9335 17.4332 27.9907 17.2956 27.991 17.152V10.841C27.991 10.6984 27.9347 10.5615 27.8343 10.4602C27.7339 10.3589 27.5976 10.3013 27.455 10.3L27.453 10.298ZM26.911 16.614H24.111C23.9915 16.6085 23.8735 16.6427 23.7755 16.7113C23.6775 16.7798 23.6049 16.8789 23.569 16.993C23.3905 17.5694 23.1585 18.1278 22.876 18.661C22.8218 18.7641 22.8022 18.882 22.8202 18.9971C22.8382 19.1122 22.8929 19.2184 22.976 19.3L24.953 21.277L21.253 24.977L19.276 23C19.1934 22.9182 19.0868 22.865 18.9717 22.8485C18.8566 22.8319 18.7393 22.8528 18.637 22.908C18.1041 23.1918 17.5452 23.4239 16.968 23.601C16.854 23.6367 16.7549 23.7091 16.6863 23.8069C16.6178 23.9048 16.5836 24.0226 16.589 24.142V26.942H11.378V24.12C11.3835 24.0005 11.3493 23.8825 11.2807 23.7845C11.2122 23.6865 11.1131 23.6139 10.999 23.578C10.4221 23.401 9.86349 23.1689 9.33099 22.885C9.2287 22.8298 9.11137 22.8089 8.99631 22.8255C8.88125 22.8421 8.77456 22.8952 8.692 22.977L6.715 24.954L3.015 21.254L4.992 19.277C5.07513 19.1954 5.12974 19.0891 5.14775 18.974C5.16576 18.8589 5.14621 18.7411 5.092 18.638C4.80956 18.1044 4.57756 17.5457 4.399 16.969C4.36315 16.8549 4.29054 16.7558 4.1925 16.6873C4.09447 16.6187 3.9765 16.5845 3.85699 16.59H1.084V11.384H3.87399C3.99346 11.3893 4.11135 11.3551 4.20935 11.2865C4.30735 11.218 4.38 11.119 4.416 11.005C4.59704 10.4285 4.83138 9.87007 5.116 9.33701C5.17022 9.23389 5.18977 9.11604 5.17175 9.00095C5.15374 8.88585 5.09912 8.77962 5.01599 8.698L3.039 6.72101L6.739 3.021L8.716 4.998C8.79734 5.07988 8.90265 5.13372 9.01665 5.1517C9.13065 5.16968 9.2474 5.15088 9.34999 5.09801C9.88587 4.81683 10.4462 4.58487 11.024 4.405C11.1381 4.36915 11.2372 4.29654 11.3058 4.1985C11.3743 4.10046 11.4085 3.98251 11.403 3.86301V1.09H16.63V3.89C16.6245 4.0095 16.6587 4.12747 16.7272 4.22551C16.7958 4.32355 16.8949 4.39616 17.009 4.43201C17.5867 4.61214 18.147 4.84408 18.683 5.125C18.7855 5.17803 18.9023 5.19693 19.0164 5.17894C19.1304 5.16095 19.2358 5.10701 19.317 5.02499L21.294 3.048L24.994 6.748L23.017 8.72501C22.9339 8.80663 22.8792 8.91286 22.8612 9.02795C22.8432 9.14305 22.8628 9.26089 22.917 9.364C23.2015 9.89746 23.4358 10.4562 23.617 11.033C23.6527 11.1471 23.7251 11.2461 23.8229 11.3147C23.9208 11.3832 24.0386 11.4174 24.158 11.412H26.948L26.911 16.614Z" fill="white"/>
</svg>
