<svg width="59" height="32" viewBox="0 0 59 32" fill="none" xmlns="http://www.w3.org/2000/svg">
<path d="M6.36511 28.6019C7.52931 29.1605 8.74444 29.6057 9.99372 29.9312C8.55314 20.8401 8.11899 12.9395 9.93126 2.74805C8.75619 2.97886 7.61657 3.36372 6.54182 3.8927C4.76767 4.8664 3.14987 6.10205 1.74277 7.55812C0.713499 15.1947 0.705374 23.8885 2.02459 25.262C3.57079 26.3009 4.68994 27.7589 6.36511 28.6019Z" fill="url(#paint0_linear_516_2561)" stroke="white" stroke-width="0.5"/>
<path d="M53.1794 28.4808C52.0152 29.0394 50.8001 29.4846 49.5508 29.8101C50.9914 20.719 51.4255 12.8184 49.6132 2.62695C50.7885 2.85773 51.9283 3.24259 53.0032 3.7716C54.7773 4.74534 56.3951 5.98098 57.8022 7.43703C58.8356 15.0736 58.992 23.7531 57.6692 25.1252C56.1225 26.164 54.8546 27.6358 53.1794 28.4808Z" fill="url(#paint1_linear_516_2561)" stroke="white" stroke-width="0.5"/>
<path d="M1.73828 7.57117C2.97524 5.47011 4.8977 2.91016 7.06643 1.92983C9.08994 1.01411 12.0716 1.33004 14.2769 1.92983C15.4448 2.24728 16.465 3.01598 17.4785 3.65495C18.9148 4.56456 20.3527 5.47401 21.7921 6.38328C25.5614 8.7667 29.4088 11.0128 33.1547 13.4318C36.7519 15.7526 40.3145 18.1243 43.942 20.3902C46.4616 22.0425 49.1249 23.4636 51.8995 24.6361C53.6102 25.3102 56.2324 26.2396 57.8568 24.8671C56.2517 27.5919 54.2515 30.0246 51.2937 30.836C49.6302 31.2909 46.353 30.9592 44.7093 30.3009C42.5995 29.4543 40.611 27.9134 38.6774 26.7219C30.6641 21.7928 22.7772 16.6577 14.8274 11.6197C12.7489 10.2566 10.5657 9.0611 8.29831 8.0443C6.46674 7.26034 3.51552 6.06889 1.73828 7.57117Z" fill="url(#paint2_linear_516_2561)" stroke="white" stroke-width="0.5"/>
<path d="M57.8134 7.44706C56.5688 5.34599 55.0353 2.40399 52.8625 1.4318C50.839 0.526253 47.4638 1.23339 45.2565 1.83878C44.1552 2.34905 43.0867 2.92776 42.0574 3.57153L37.7479 6.31157C33.9863 8.70261 30.1429 10.9609 26.4046 13.3875C22.8161 15.715 19.2586 18.0984 15.634 20.3724C13.1189 22.0308 10.4595 23.4583 7.68827 24.6377C5.97755 25.3173 3.35892 26.2529 1.73047 24.8844C3.34318 27.6051 4.72638 30.0302 7.68776 30.8335C9.35125 31.2883 13.25 30.9526 14.8937 30.2866C17.004 29.4381 18.9844 27.8874 20.918 26.6909C28.9186 21.7394 36.1169 16.0904 44.0546 11.0372C46.2374 9.56166 48.5271 8.25127 50.9045 7.11689C52.7087 6.33649 56.028 5.94935 57.8134 7.44706Z" fill="url(#paint3_linear_516_2561)" stroke="white" stroke-width="0.5"/>
<defs>
<linearGradient id="paint0_linear_516_2561" x1="1" y1="16.3396" x2="9.99372" y2="16.3396" gradientUnits="userSpaceOnUse">
<stop offset="0.137" stop-color="#B1F293"/>
<stop offset="0.227" stop-color="#98EAAE"/>
<stop offset="0.322" stop-color="#85E4C2"/>
<stop offset="0.415" stop-color="#79E0CF"/>
<stop offset="0.505" stop-color="#75DFD3"/>
<stop offset="0.595" stop-color="#79E0CF"/>
<stop offset="0.688" stop-color="#85E4C2"/>
<stop offset="0.782" stop-color="#98EAAE"/>
<stop offset="0.872" stop-color="#B1F293"/>
</linearGradient>
<linearGradient id="paint1_linear_516_2561" x1="49.5508" y1="16.2185" x2="58.6193" y2="16.2185" gradientUnits="userSpaceOnUse">
<stop offset="0.137" stop-color="#B1F293"/>
<stop offset="0.227" stop-color="#98EAAE"/>
<stop offset="0.322" stop-color="#85E4C2"/>
<stop offset="0.415" stop-color="#79E0CF"/>
<stop offset="0.505" stop-color="#75DFD3"/>
<stop offset="0.595" stop-color="#79E0CF"/>
<stop offset="0.688" stop-color="#85E4C2"/>
<stop offset="0.782" stop-color="#98EAAE"/>
<stop offset="0.872" stop-color="#B1F293"/>
</linearGradient>
<linearGradient id="paint2_linear_516_2561" x1="1.73828" y1="16.2008" x2="57.8568" y2="16.2008" gradientUnits="userSpaceOnUse">
<stop offset="0.137" stop-color="#B1F293"/>
<stop offset="0.227" stop-color="#98EAAE"/>
<stop offset="0.322" stop-color="#85E4C2"/>
<stop offset="0.415" stop-color="#79E0CF"/>
<stop offset="0.505" stop-color="#75DFD3"/>
<stop offset="0.595" stop-color="#79E0CF"/>
<stop offset="0.688" stop-color="#85E4C2"/>
<stop offset="0.782" stop-color="#98EAAE"/>
<stop offset="0.872" stop-color="#B1F293"/>
</linearGradient>
<linearGradient id="paint3_linear_516_2561" x1="1.73047" y1="16.1414" x2="57.8134" y2="16.1414" gradientUnits="userSpaceOnUse">
<stop offset="0.137" stop-color="#B1F293"/>
<stop offset="0.226" stop-color="#98EAAE"/>
<stop offset="0.319" stop-color="#85E4C2"/>
<stop offset="0.411" stop-color="#79E0CF"/>
<stop offset="0.5" stop-color="#75DFD3"/>
<stop offset="0.576" stop-color="#79E0CF"/>
<stop offset="0.655" stop-color="#85E4C2"/>
<stop offset="0.734" stop-color="#98EAAE"/>
<stop offset="0.809" stop-color="#B1F293"/>
</linearGradient>
</defs>
</svg>
