<svg width="48" height="48" viewBox="0 0 48 48" fill="none" xmlns="http://www.w3.org/2000/svg">
<circle opacity="0.4" cx="24" cy="24" r="24" fill="#D24E4E"/>
<g clip-path="url(#clip0_611_9708)">
<path d="M21.2292 33.5638C21.2128 33.5261 21.1872 33.4927 21.1547 33.4667C21.1221 33.4406 21.0835 33.4226 21.0422 33.4142C20.456 33.2877 19.8827 33.1102 19.3292 32.8838C19.2905 32.8678 19.2485 32.861 19.2065 32.8641C19.1646 32.8671 19.124 32.8799 19.0882 32.9013L17.4652 33.8417L16.5392 33.2054C16.5252 33.1917 16.5102 33.179 16.4942 33.1675L15.5142 32.4875L15.8942 30.6941C15.903 30.6544 15.9019 30.6132 15.8909 30.574C15.8799 30.5348 15.8595 30.4987 15.8312 30.4688C15.401 30.0064 15.0172 29.5051 14.6852 28.9717C14.6632 28.937 14.6332 28.9075 14.5977 28.8856C14.5622 28.8637 14.522 28.85 14.4802 28.8454L12.5982 28.6754L12.2362 27.6233C12.235 27.6035 12.231 27.5839 12.2242 27.5651L11.8442 26.4576L13.2342 25.2297C13.265 25.2019 13.2889 25.1677 13.3042 25.1297C13.3194 25.0917 13.3256 25.0508 13.3222 25.0101C13.2861 24.6745 13.2681 24.3372 13.2682 23.9998C13.268 23.6652 13.2861 23.3309 13.3222 22.9982C13.3264 22.9575 13.3205 22.9164 13.3053 22.8782C13.29 22.8401 13.2656 22.806 13.2342 22.7787L11.8392 21.5478L12.2192 20.4403C12.2264 20.4217 12.2304 20.402 12.2312 20.3821L12.5932 19.33L14.4692 19.16C14.5112 19.156 14.5516 19.1425 14.5872 19.1206C14.6228 19.0986 14.6526 19.0689 14.6742 19.0337C15.007 18.4973 15.3917 17.9931 15.8232 17.5279C15.8513 17.4979 15.8717 17.4618 15.8827 17.4226C15.8936 17.3834 15.8948 17.3423 15.8862 17.3025L15.5092 15.5179L16.4892 14.8379C16.5055 14.8268 16.5206 14.8141 16.5342 14.8L17.4632 14.1579L19.0772 15.0924C19.1132 15.1135 19.1539 15.1258 19.1959 15.1283C19.2378 15.1308 19.2798 15.1235 19.3182 15.107C19.8742 14.8784 20.4506 14.6998 21.0402 14.5737C21.0815 14.5652 21.12 14.5472 21.1526 14.5211C21.1852 14.4951 21.2108 14.4618 21.2272 14.4241L21.9842 12.7541H23.1242C23.144 12.7576 23.1641 12.7596 23.1842 12.76H24.3842L25.1382 14.4241C25.1546 14.4618 25.1802 14.4952 25.2128 14.5212C25.2453 14.5473 25.2839 14.5653 25.3252 14.5737C25.9159 14.6994 26.4934 14.878 27.0502 15.107C27.0888 15.1228 27.1307 15.1298 27.1725 15.1272C27.2143 15.1247 27.255 15.1128 27.2912 15.0924L28.9052 14.1579L29.8342 14.8C29.8482 14.8137 29.8633 14.8264 29.8792 14.8379L30.8592 15.5179L30.4822 17.3025C30.4734 17.3422 30.4746 17.3834 30.4855 17.4226C30.4965 17.4619 30.517 17.4979 30.5452 17.5279C30.9775 17.9925 31.3623 18.4968 31.6942 19.0337C31.7163 19.0685 31.7462 19.0979 31.7817 19.1198C31.8172 19.1417 31.8574 19.1554 31.8992 19.16L33.7752 19.33L34.1392 20.3821C34.1404 20.4019 34.1445 20.4216 34.1512 20.4403L34.5312 21.5478L33.1412 22.7757C33.1106 22.8036 33.0869 22.8378 33.0718 22.8758C33.0568 22.9139 33.0507 22.9547 33.0542 22.9953C33.0903 23.328 33.1083 23.6623 33.1082 23.9969C33.1083 24.3343 33.0902 24.6716 33.0542 25.0072C33.05 25.0479 33.0556 25.0889 33.0707 25.1271C33.0859 25.1652 33.11 25.1994 33.1412 25.2267L34.5312 26.4547L34.3472 26.9851C34.3361 27.0174 34.3317 27.0516 34.3342 27.0856C34.3367 27.1196 34.346 27.1528 34.3617 27.1833C34.3774 27.2138 34.3991 27.241 34.4257 27.2633C34.4522 27.2856 34.4829 27.3027 34.5162 27.3134C34.5495 27.3242 34.5847 27.3285 34.6197 27.3261C34.6547 27.3237 34.6888 27.3146 34.7202 27.2994C34.7516 27.2841 34.7796 27.263 34.8026 27.2373C34.8256 27.2115 34.8431 27.1816 34.8542 27.1493L35.0922 26.4576C35.1088 26.4097 35.1109 26.3583 35.0981 26.3093C35.0853 26.2604 35.0583 26.2161 35.0202 26.1817L33.6002 24.9275C33.6302 24.6167 33.6422 24.3039 33.6422 23.9959C33.6422 23.6879 33.6272 23.378 33.6002 23.0701L35.0202 21.8159C35.059 21.7821 35.0866 21.7378 35.0994 21.6886C35.1123 21.6395 35.1098 21.5878 35.0922 21.54L34.6762 20.3267C34.675 20.3068 34.671 20.2872 34.6642 20.2684L34.2272 18.9997C34.2107 18.9519 34.1803 18.9099 34.1397 18.8787C34.099 18.8474 34.0498 18.8284 33.9982 18.8238L32.0832 18.6509C31.7741 18.1648 31.4232 17.7049 31.0342 17.2763L31.4202 15.4538C31.4303 15.4047 31.4256 15.3538 31.4069 15.3071C31.3881 15.2605 31.3559 15.22 31.3142 15.1906L30.2392 14.4561C30.2252 14.4424 30.2102 14.4298 30.1942 14.4182L29.0722 13.6411C29.0297 13.612 28.9794 13.5955 28.9275 13.5934C28.8755 13.5914 28.8241 13.6038 28.7792 13.6294L27.1292 14.5844C26.6225 14.3829 26.1002 14.2205 25.5672 14.0986L24.7952 12.3995C24.7744 12.3535 24.7402 12.3143 24.6969 12.2867C24.6536 12.2592 24.603 12.2444 24.5512 12.2441H23.2392C23.2194 12.2406 23.1994 12.2387 23.1792 12.2383H21.8042C21.7524 12.2384 21.7018 12.2532 21.6584 12.2808C21.6151 12.3084 21.581 12.3476 21.5602 12.3937L20.7852 14.0986C20.2543 14.2207 19.734 14.3831 19.2292 14.5844L17.5792 13.6294C17.5344 13.6038 17.4829 13.5914 17.431 13.5934C17.379 13.5955 17.3288 13.612 17.2862 13.6411L16.1642 14.4182C16.148 14.4294 16.1329 14.4421 16.1192 14.4561L15.0482 15.1974C15.0055 15.226 14.9727 15.2663 14.9538 15.3132C14.9349 15.3602 14.9309 15.4115 14.9422 15.4606L15.3282 17.2831C14.9392 17.7117 14.5883 18.1715 14.2792 18.6577L12.3652 18.8277C12.3136 18.8323 12.2645 18.8513 12.2238 18.8825C12.1831 18.9138 12.1527 18.9558 12.1362 19.0036L11.6992 20.2723C11.692 20.291 11.688 20.3106 11.6872 20.3306L11.2712 21.5439C11.2546 21.5918 11.2526 21.6433 11.2654 21.6922C11.2781 21.7411 11.3052 21.7854 11.3432 21.8198L12.7632 23.074C12.7362 23.3819 12.7212 23.6918 12.7212 23.9998C12.7212 24.3077 12.7362 24.6235 12.7632 24.9314L11.3392 26.1836C11.3004 26.2175 11.2728 26.2618 11.26 26.3109C11.2472 26.3601 11.2497 26.4118 11.2672 26.4595L11.6832 27.6729C11.6844 27.6928 11.6885 27.7124 11.6952 27.7312L12.1322 28.9999C12.1487 29.0476 12.1791 29.0897 12.2198 29.1209C12.2605 29.1521 12.3096 29.1712 12.3612 29.1757L14.2822 29.3487C14.5903 29.8309 14.9392 30.2875 15.3252 30.7136L14.9392 32.5448C14.9292 32.5939 14.9338 32.6448 14.9526 32.6915C14.9714 32.7381 15.0035 32.7786 15.0452 32.808L16.1162 33.5493C16.1302 33.563 16.1453 33.5756 16.1612 33.5872L17.2832 34.3643C17.3258 34.3934 17.376 34.4099 17.428 34.412C17.4799 34.414 17.5314 34.4016 17.5762 34.376L19.2352 33.4152C19.7371 33.614 20.2544 33.7738 20.7822 33.8932L21.5572 35.601C21.5782 35.647 21.6124 35.6861 21.6556 35.7137C21.6989 35.7412 21.7495 35.7561 21.8012 35.7564C21.839 35.7572 21.8763 35.7492 21.9102 35.7331C21.9425 35.7194 21.9716 35.6997 21.9959 35.675C22.0202 35.6503 22.0393 35.6211 22.0519 35.5892C22.0646 35.5573 22.0706 35.5233 22.0696 35.4892C22.0686 35.455 22.0607 35.4214 22.0462 35.3902L21.2172 33.5619L21.2292 33.5638Z" fill="#FF6161" stroke="#FF5656" stroke-width="0.5"/>
<path d="M18.0262 18.9808C18.916 18.1177 20.0199 17.4921 21.2313 17.1646C22.4426 16.8371 23.7205 16.8187 24.9413 17.1112C26.1621 17.4038 27.2846 17.9973 28.2003 18.8345C29.1159 19.6717 29.7937 20.7243 30.1682 21.8903C30.1916 21.9534 30.2391 22.0052 30.3008 22.0349C30.3626 22.0647 30.4338 22.0701 30.4995 22.05C30.5653 22.0299 30.6205 21.9859 30.6536 21.9272C30.6867 21.8684 30.6952 21.7996 30.6772 21.7349C30.4325 20.9677 30.0628 20.2435 29.5822 19.5899C28.8159 18.5424 27.789 17.7004 26.5974 17.1423C25.4058 16.5841 24.0882 16.3281 22.7673 16.398C21.4464 16.4679 20.1651 16.8614 19.0429 17.5419C17.9208 18.2224 16.9942 19.1678 16.3494 20.29C15.7047 21.4121 15.3628 22.6746 15.3556 23.9597C15.3484 25.2448 15.6761 26.5107 16.3083 27.6396C16.9404 28.7685 17.8564 29.7236 18.9709 30.416C20.0854 31.1083 21.3622 31.5153 22.6822 31.5992H22.7002C22.771 31.6011 22.8398 31.5756 22.8912 31.5283C22.9427 31.4811 22.9728 31.4159 22.9747 31.3471C22.9767 31.2783 22.9505 31.2115 22.9018 31.1615C22.8532 31.1115 22.786 31.0823 22.7152 31.0804C21.3137 30.9926 19.968 30.514 18.8395 29.7018C17.711 28.8897 16.8476 27.7785 16.3528 26.5016C15.8581 25.2247 15.753 23.8363 16.0501 22.5028C16.3473 21.1694 17.0341 19.9475 18.0282 18.9837L18.0262 18.9808Z" fill="#FF6161" stroke="#FF5656" stroke-width="0.5"/>
<path d="M29.872 25.9297C29.7536 25.9295 29.6364 25.9531 29.5278 25.9989C29.4192 26.0447 29.3215 26.1118 29.2408 26.1959C29.1601 26.2801 29.0982 26.3795 29.0588 26.488C29.0194 26.5964 29.0035 26.7116 29.012 26.8264L29.374 31.5107C29.374 31.6396 29.4267 31.7631 29.5205 31.8542C29.6142 31.9453 29.7414 31.9965 29.874 31.9965C30.0066 31.9965 30.1338 31.9453 30.2276 31.8542C30.3213 31.7631 30.374 31.6396 30.374 31.5107L30.736 26.8264C30.7447 26.7116 30.7289 26.5963 30.6896 26.4878C30.6502 26.3793 30.5883 26.2798 30.5075 26.1956C30.4268 26.1114 30.329 26.0443 30.2203 25.9986C30.1117 25.9528 29.9945 25.9294 29.876 25.9297H29.872Z" fill="#FF6161"/>
<path d="M29.8727 32.7852C29.76 32.7852 29.6498 32.8176 29.5561 32.8785C29.4623 32.9393 29.3893 33.0258 29.3461 33.127C29.303 33.2282 29.2917 33.3395 29.3137 33.4469C29.3357 33.5543 29.3899 33.653 29.4697 33.7304C29.5494 33.8079 29.651 33.8606 29.7615 33.882C29.8721 33.9033 29.9867 33.8924 30.0908 33.8505C30.195 33.8085 30.284 33.7376 30.3467 33.6465C30.4093 33.5555 30.4427 33.4484 30.4427 33.3389C30.4422 33.1922 30.382 33.0516 30.2752 32.9479C30.1684 32.8442 30.0237 32.7857 29.8727 32.7852Z" fill="#FF6161"/>
<path d="M37.0686 33.1317L31.4136 23.8445C31.2549 23.5848 31.0294 23.3696 30.7593 23.2202C30.4891 23.0708 30.1835 22.9922 29.8726 22.9922C29.5617 22.9922 29.2562 23.0708 28.986 23.2202C28.7158 23.3696 28.4903 23.5848 28.3316 23.8445L22.6766 33.1317C22.5153 33.3954 22.4288 33.6959 22.4259 34.0026C22.4229 34.3094 22.5037 34.6114 22.66 34.8779C22.8163 35.1444 23.0425 35.366 23.3156 35.52C23.5887 35.674 23.8989 35.755 24.2146 35.7547H35.5236C35.8394 35.755 36.1496 35.674 36.4227 35.52C36.6957 35.366 36.9219 35.1444 37.0782 34.8779C37.2345 34.6114 37.3153 34.3094 37.3124 34.0026C37.3095 33.6959 37.223 33.3954 37.0616 33.1317H37.0686ZM36.6196 34.62C36.5109 34.8074 36.3526 34.9631 36.1611 35.0712C35.9697 35.1793 35.7521 35.2358 35.5306 35.2349H24.2186C23.9973 35.2346 23.7801 35.1775 23.5888 35.0693C23.3975 34.9612 23.2391 34.8059 23.1294 34.6192C23.0198 34.4324 22.9629 34.2208 22.9646 34.0059C22.9662 33.7909 23.0262 33.5801 23.1386 33.395L28.7936 24.1078C28.9047 23.9257 29.0627 23.7749 29.2519 23.6702C29.4412 23.5655 29.6553 23.5104 29.8731 23.5104C30.091 23.5104 30.305 23.5655 30.4943 23.6702C30.6836 23.7749 30.8415 23.9257 30.9526 24.1078L36.6076 33.395C36.7217 33.5797 36.7826 33.7908 36.7842 34.0063C36.7858 34.2217 36.7279 34.4336 36.6166 34.62H36.6196Z" fill="#FF6161" stroke="#FF5656" stroke-width="0.5"/>
</g>
<defs>
<clipPath id="clip0_611_9708">
<rect width="26.583" height="24" fill="white" transform="translate(11 12)"/>
</clipPath>
</defs>
</svg>
