<?xml version="1.0" encoding="UTF-8"?>
<svg version="1.1" xmlns="http://www.w3.org/2000/svg" width="32" height="32">
<path d="M0 0 C0.99 0.33 1.98 0.66 3 1 C3 2.65 3 4.3 3 6 C6.3 6 9.6 6 13 6 C14.29243536 10.1196377 15.26252625 13.66831683 15 18 C14.34 18 13.68 18 13 18 C13.01160156 18.63808594 13.02320312 19.27617187 13.03515625 19.93359375 C13.04417969 20.75988281 13.05320312 21.58617188 13.0625 22.4375 C13.07410156 23.26121094 13.08570312 24.08492187 13.09765625 24.93359375 C13 27 13 27 12 28 C10.37742456 28.0991657 8.75060169 28.13079777 7.125 28.1328125 C6.14015625 28.13410156 5.1553125 28.13539062 4.140625 28.13671875 C3.10421875 28.13285156 2.0678125 28.12898438 1 28.125 C-0.55460938 28.13080078 -0.55460938 28.13080078 -2.140625 28.13671875 C-3.12546875 28.13542969 -4.1103125 28.13414063 -5.125 28.1328125 C-6.03507813 28.13168457 -6.94515625 28.13055664 -7.8828125 28.12939453 C-10 28 -10 28 -11 27 C-11.07179964 25.48071962 -11.08392007 23.95832518 -11.0625 22.4375 C-11.05347656 21.61121094 -11.04445313 20.78492187 -11.03515625 19.93359375 C-11.02355469 19.29550781 -11.01195312 18.65742188 -11 18 C-11.66 18 -12.32 18 -13 18 C-13.26252625 13.66831683 -12.29243536 10.1196377 -11 6 C-7.7 6 -4.4 6 -1 6 C-1 4.35 -1 2.7 -1 1 C-0.67 0.67 -0.34 0.34 0 0 Z M-8 9 C-8 13.95 -8 18.9 -8 24 C-2.06 24 3.88 24 10 24 C10 19.05 10 14.1 10 9 C4.06 9 -1.88 9 -8 9 Z " fill="#74E6AE" transform="translate(15,2)"/>
<path d="M0 0 C0.99 0.33 1.98 0.66 3 1 C3.38063221 3.3260857 3.71269945 5.66055264 4 8 C3 9 3 9 0.71484375 9.09765625 C-0.65994141 9.08025391 -0.65994141 9.08025391 -2.0625 9.0625 C-2.98160156 9.05347656 -3.90070312 9.04445313 -4.84765625 9.03515625 C-5.55792969 9.02355469 -6.26820312 9.01195312 -7 9 C-6.67 8.01 -6.34 7.02 -6 6 C-4.35 6 -2.7 6 -1 6 C-1.020625 5.195625 -1.04125 4.39125 -1.0625 3.5625 C-1 1 -1 1 0 0 Z " fill="#67E3B3" transform="translate(15,2)"/>
<path d="M0 0 C3.96 0 7.92 0 12 0 C12 0.99 12 1.98 12 3 C8.04 3 4.08 3 0 3 C0 2.01 0 1.02 0 0 Z " fill="#70E5B0" transform="translate(10,21)"/>
<path d="M0 0 C1.98 0.495 1.98 0.495 4 1 C3.67 2.65 3.34 4.3 3 6 C1.68 5.67 0.36 5.34 -1 5 C-0.67 3.35 -0.34 1.7 0 0 Z " fill="#74E6AE" transform="translate(10,13)"/>
<path d="M0 0 C1.98 0.495 1.98 0.495 4 1 C3.67 2.65 3.34 4.3 3 6 C1.68 5.67 0.36 5.34 -1 5 C-0.67 3.35 -0.34 1.7 0 0 Z " fill="#6DE4B0" transform="translate(19,13)"/>
</svg>
