<svg width="20" height="20" viewBox="0 0 20 20" fill="none" xmlns="http://www.w3.org/2000/svg">
<mask id="mask0_348_883" style="mask-type:alpha" maskUnits="userSpaceOnUse" x="0" y="0" width="20" height="20">
<rect width="20" height="20" fill="#343434"/>
</mask>
<g mask="url(#mask0_348_883)">
<path d="M9.76746 14.9995C10.0199 14.9907 10.2588 14.8829 10.4325 14.6995L16.6935 8.16548C16.8216 8.02664 16.9138 7.85852 16.9619 7.67582C17.01 7.49312 17.0126 7.30141 16.9695 7.11748C16.9316 6.93673 16.8471 6.76906 16.7243 6.63115C16.6014 6.49325 16.4446 6.38993 16.2695 6.33148C16.0991 6.27882 15.9173 6.27529 15.745 6.32128C15.5728 6.36727 15.4169 6.46092 15.2955 6.59148L9.73546 12.3995L4.17046 6.58748C4.049 6.45692 3.89318 6.36327 3.72089 6.31728C3.5486 6.27129 3.36683 6.27482 3.19646 6.32748C3.02129 6.38593 2.86449 6.48925 2.74168 6.62715C2.61886 6.76506 2.53432 6.93273 2.49646 7.11348C2.45333 7.29741 2.45593 7.48912 2.50405 7.67182C2.55216 7.85452 2.64432 8.02264 2.77246 8.16148L9.03846 14.6995C9.13159 14.7983 9.24467 14.8761 9.37018 14.9278C9.4957 14.9795 9.63178 15.004 9.76746 14.9995Z" fill="white"/>
</g>
</svg>
