<svg width="19" height="24" viewBox="0 0 19 24" fill="none" xmlns="http://www.w3.org/2000/svg">
<g clip-path="url(#clip0_348_888)">
<path d="M17.963 4.31693C14.9323 3.74571 12.074 2.48372 9.61002 0.628933C9.54717 0.569944 9.4642 0.537109 9.37801 0.537109C9.29181 0.537109 9.20886 0.569944 9.14601 0.628933C6.68565 2.48989 3.82585 3.75255 0.793017 4.31693C0.711047 4.32879 0.636165 4.37 0.582278 4.4329C0.528392 4.4958 0.499164 4.57611 0.500018 4.65893V12.8169C0.551897 14.2166 1.03843 15.5654 1.89202 16.6759C2.74402 17.8291 3.7539 18.8569 4.89202 19.7289C6.23488 20.8011 7.68333 21.7339 9.21501 22.5129C9.27 22.5317 9.32797 22.5401 9.38602 22.5379C9.43624 22.542 9.48669 22.5338 9.53301 22.5139C11.0646 21.7348 12.5131 20.8021 13.856 19.7299C14.9941 18.8579 16.004 17.8301 16.856 16.6769C17.7166 15.5702 18.2039 14.2191 18.248 12.8179V4.68393C18.2456 4.59936 18.2157 4.51788 18.1628 4.45183C18.11 4.38579 18.037 4.33878 17.955 4.31793L17.963 4.31693Z" fill="#DC0916" stroke="white"/>
<path fill-rule="evenodd" clip-rule="evenodd" d="M9.36711 10.6639L6.70511 8.00194C6.58881 7.88564 6.43109 7.82031 6.26662 7.82031C6.10215 7.82031 5.94441 7.88564 5.82811 8.00194C5.71181 8.11824 5.64648 8.27598 5.64648 8.44044C5.64648 8.60491 5.71181 8.76264 5.82811 8.87894L8.49011 11.5409L5.82811 14.2029C5.71181 14.3192 5.64648 14.477 5.64648 14.6414C5.64648 14.8059 5.71181 14.9636 5.82811 15.0799C5.94441 15.1962 6.10215 15.2616 6.26662 15.2616C6.43109 15.2616 6.58881 15.1962 6.70511 15.0799L9.36711 12.4179L12.0291 15.0799C12.1454 15.1962 12.3032 15.2616 12.4676 15.2616C12.6321 15.2616 12.7898 15.1962 12.9061 15.0799C13.0224 14.9636 13.0878 14.8059 13.0878 14.6414C13.0878 14.477 13.0224 14.3192 12.9061 14.2029L10.2441 11.5409L12.9061 8.87894C13.0224 8.76264 13.0878 8.60491 13.0878 8.44044C13.0878 8.27598 13.0224 8.11824 12.9061 8.00194C12.7898 7.88564 12.6321 7.82031 12.4676 7.82031C12.3032 7.82031 12.1454 7.88564 12.0291 8.00194L9.36711 10.6639Z" fill="white"/>
</g>
<defs>
<clipPath id="clip0_348_888">
<rect width="18.832" height="23.037" fill="white"/>
</clipPath>
</defs>
</svg>
