<svg width="24" height="24" viewBox="0 0 24 24" fill="none" xmlns="http://www.w3.org/2000/svg">
<path d="M20.4844 3H16.4924L16.9924 8C16.9924 8 17.9924 9 19.4924 9C20.2798 9.00104 21.0405 8.71441 21.6314 8.194C21.6939 8.13563 21.7404 8.0623 21.7667 7.98094C21.7929 7.89958 21.798 7.81287 21.7814 7.729L21.0754 3.5C21.0518 3.36029 20.9795 3.23345 20.8714 3.14194C20.7632 3.05042 20.6261 3.00014 20.4844 3Z" stroke="white" stroke-width="1.5"/>
<path d="M16.4924 3L16.9924 8C16.9924 8 15.9924 9 14.4924 9C12.9924 9 11.9924 8 11.9924 8V3H16.4924Z" stroke="white" stroke-width="1.5"/>
<path d="M11.9924 3V8C11.9924 8 10.9924 9 9.49243 9C7.99243 9 6.99243 8 6.99243 8L7.49243 3H11.9924Z" stroke="white" stroke-width="1.5"/>
<path d="M7.49301 3H3.50201C3.36001 2.99995 3.22258 3.05026 3.11419 3.142C3.00579 3.23373 2.93344 3.36094 2.91001 3.501L2.20501 7.73C2.18853 7.81387 2.19366 7.90055 2.2199 7.98189C2.24614 8.06324 2.29263 8.13657 2.35501 8.195C2.68301 8.485 3.41601 9.001 4.49301 9.001C5.99301 9.001 6.99301 8.001 6.99301 8.001L7.49301 3Z" stroke="white" stroke-width="1.5"/>
<path d="M3 9V19C3 19.5304 3.21071 20.0391 3.58579 20.4142C3.96086 20.7893 4.46957 21 5 21H19C19.5304 21 20.0391 20.7893 20.4142 20.4142C20.7893 20.0391 21 19.5304 21 19V9" stroke="white" stroke-width="1.5"/>
<path d="M14.8323 21V15C14.8323 14.4696 14.6216 13.9609 14.2465 13.5858C13.8714 13.2107 13.3627 13 12.8323 13H10.8323C10.3018 13 9.79313 13.2107 9.41806 13.5858C9.04299 13.9609 8.83228 14.4696 8.83228 15V21" stroke="white" stroke-width="1.5" stroke-miterlimit="16"/>
</svg>
