<svg width="48" height="48" viewBox="0 0 48 48" fill="none" xmlns="http://www.w3.org/2000/svg">
<circle opacity="0.2" cx="24" cy="24" r="24" fill="#3C71FB"/>
<path d="M25.8077 16.1367C25.683 16.1367 25.5634 16.084 25.4752 15.9902C25.387 15.8964 25.3375 15.7691 25.3375 15.6364V13.9573C25.3375 13.6921 25.2384 13.4377 25.0622 13.2501C24.8859 13.0626 24.6468 12.9572 24.3975 12.9572C24.1482 12.9572 23.9091 13.0626 23.7328 13.2501C23.5566 13.4377 23.4575 13.6921 23.4575 13.9573V15.6373C23.4603 15.7048 23.4501 15.7721 23.4278 15.8353C23.4054 15.8985 23.3712 15.9562 23.3273 16.0049C23.2834 16.0537 23.2307 16.0925 23.1724 16.119C23.114 16.1455 23.0512 16.1591 22.9878 16.1591C22.9243 16.1591 22.8615 16.1455 22.8032 16.119C22.7448 16.0925 22.6921 16.0537 22.6482 16.0049C22.6043 15.9562 22.5702 15.8985 22.5478 15.8353C22.5254 15.7721 22.5153 15.7048 22.518 15.6373V13.9573C22.5286 13.4344 22.7312 12.9366 23.0825 12.5708C23.4339 12.2049 23.9059 12 24.3975 12C24.8891 12 25.3611 12.2049 25.7124 12.5708C26.0638 12.9366 26.2664 13.4344 26.277 13.9573V15.6373C26.277 15.7698 26.2275 15.8968 26.1395 15.9905C26.0515 16.0841 25.9321 16.1367 25.8077 16.1367Z" fill="#3C71FB"/>
<path d="M24.3995 35.9587C23.5277 35.9567 22.6922 35.5874 22.0757 34.9316C21.4591 34.2758 21.1119 33.3869 21.1098 32.4593C21.1071 32.3918 21.1172 32.3245 21.1396 32.2613C21.162 32.1982 21.1961 32.1405 21.24 32.0917C21.2839 32.043 21.3366 32.0042 21.395 31.9777C21.4533 31.9512 21.5161 31.9375 21.5796 31.9375C21.643 31.9375 21.7058 31.9512 21.7642 31.9777C21.8225 32.0042 21.8752 32.043 21.9191 32.0917C21.963 32.1405 21.9972 32.1982 22.0195 32.2613C22.0419 32.3245 22.0521 32.3918 22.0493 32.4593C22.0493 33.1224 22.2969 33.7583 22.7375 34.2272C23.1782 34.696 23.7758 34.9594 24.399 34.9594C25.0222 34.9594 25.6198 34.696 26.0605 34.2272C26.5011 33.7583 26.7487 33.1224 26.7487 32.4593C26.746 32.3918 26.7561 32.3245 26.7785 32.2613C26.8009 32.1982 26.835 32.1405 26.8789 32.0917C26.9228 32.043 26.9755 32.0042 27.0339 31.9777C27.0922 31.9512 27.155 31.9375 27.2185 31.9375C27.2819 31.9375 27.3447 31.9512 27.4031 31.9777C27.4614 32.0042 27.5141 32.043 27.558 32.0917C27.6019 32.1405 27.6361 32.1982 27.6584 32.2613C27.6808 32.3245 27.691 32.3918 27.6882 32.4593C27.6862 33.3867 27.339 34.2755 26.7227 34.9313C26.1064 35.5871 25.2711 35.9565 24.3995 35.9587Z" fill="#3C71FB"/>
<path d="M32.3868 32.9575H16.4096C16.1214 32.9575 15.8402 32.8635 15.6038 32.6882C15.3673 32.5129 15.1871 32.2647 15.0873 31.9771C14.9875 31.6894 14.9729 31.3761 15.0455 31.0794C15.1182 30.7827 15.2745 30.5168 15.4935 30.3175C16.2224 29.6646 16.8082 28.8499 17.21 27.9306C17.6118 27.0114 17.8197 26.0098 17.8193 24.996V21.9572C17.8193 20.1006 18.5125 18.3201 19.7462 17.0073C20.98 15.6945 22.6534 14.957 24.3982 14.957C26.143 14.957 27.8164 15.6945 29.0501 17.0073C30.2839 18.3201 30.977 20.1006 30.977 21.9572V24.995C30.9762 26.0073 31.1832 27.0075 31.5838 27.9256C31.9844 28.8437 32.5687 29.6575 33.2959 30.3101C33.5171 30.5083 33.6757 30.7741 33.7501 31.0714C33.8246 31.3688 33.8112 31.6833 33.712 31.9723C33.6127 32.2613 33.4324 32.5109 33.1953 32.6871C32.9582 32.8633 32.676 32.9577 32.3868 32.9575ZM24.3978 15.9572C22.9027 15.9589 21.4694 16.5916 20.4122 17.7164C19.3551 18.8413 18.7605 20.3664 18.7589 21.9572V24.995C18.7599 26.1527 18.5232 27.2966 18.0652 28.3467C17.6073 29.3968 16.9392 30.3278 16.1077 31.0744C16.0334 31.1402 15.98 31.2287 15.9547 31.328C15.9295 31.4273 15.9337 31.5324 15.9667 31.6291C15.9997 31.7257 16.06 31.8092 16.1393 31.868C16.2185 31.9269 16.313 31.9582 16.4096 31.9578H32.3868C32.4827 31.9576 32.5762 31.9261 32.6549 31.8677C32.7335 31.8092 32.7935 31.7266 32.8267 31.6308C32.8599 31.5351 32.8648 31.4308 32.8408 31.332C32.8167 31.2332 32.7649 31.1446 32.6921 31.0781C31.86 30.3313 31.1912 29.4 30.7327 28.3494C30.2741 27.2988 30.0369 26.1543 30.0375 24.996V21.9572C30.0359 20.3664 29.4413 18.8413 28.3842 17.7164C27.327 16.5916 25.8928 15.9589 24.3978 15.9572Z" fill="#3C71FB"/>
</svg>
