<svg width="48" height="48" viewBox="0 0 48 48" fill="none" xmlns="http://www.w3.org/2000/svg">
<circle opacity="0.24" cx="24" cy="24" r="24" fill="#00C75B"/>
<g clip-path="url(#clip0_611_9723)">
<path d="M37.3447 25.8282C37.0367 25.6838 36.6997 25.6044 36.3567 25.5954H32.0447V22.5281C32.0444 22.1398 31.8826 21.7675 31.5948 21.4929C31.307 21.2183 30.9167 21.0639 30.5097 21.0637H28.8777V16.4461C28.8731 15.8449 28.7335 15.2517 28.4682 14.7065C28.2028 14.1612 27.818 13.6766 27.3397 13.2853C26.3223 12.4558 25.028 12 23.6897 12C22.3514 12 21.057 12.4558 20.0397 13.2853C19.5613 13.6766 19.1765 14.1612 18.9112 14.7065C18.6459 15.2517 18.5062 15.8449 18.5017 16.4461V21.0637H16.8697C16.4627 21.0639 16.0724 21.2183 15.7846 21.4929C15.4968 21.7675 15.3349 22.1398 15.3347 22.5281V25.5963H11.0227C10.6796 25.6053 10.3427 25.6847 10.0347 25.8291C9.70844 25.9853 9.43704 26.2289 9.25373 26.53C9.07043 26.8311 8.98318 27.1767 9.00268 27.5245V34.0711C8.98316 34.4192 9.07061 34.7652 9.2543 35.0665C9.43798 35.3679 9.7099 35.6115 10.0367 35.7674C10.3447 35.9118 10.6817 35.9912 11.0247 36.0002H36.3597C36.7027 35.9912 37.0397 35.9118 37.3477 35.7674C37.6745 35.6115 37.9464 35.3679 38.1301 35.0665C38.3137 34.7652 38.4012 34.4192 38.3817 34.0711V27.5245C38.4012 27.1764 38.3137 26.8304 38.1301 26.5291C37.9464 26.2277 37.6745 25.9841 37.3477 25.8282H37.3447ZM19.3777 16.4461C19.5151 15.4478 20.0282 14.5312 20.8216 13.8672C21.6149 13.2031 22.6343 12.837 23.6897 12.837C24.7451 12.837 25.7644 13.2031 26.5578 13.8672C27.3511 14.5312 27.8643 15.4478 28.0017 16.4461V21.0637H19.3787L19.3777 16.4461ZM16.2107 22.5272C16.2109 22.3608 16.2804 22.2012 16.4037 22.0836C16.527 21.9659 16.6942 21.8997 16.8687 21.8994H30.5107C30.6851 21.8997 30.8523 21.9659 30.9757 22.0836C31.099 22.2012 31.1684 22.3608 31.1687 22.5272V25.5954H26.2027C26.0994 25.0313 25.7909 24.52 25.3314 24.1515C24.8719 23.783 24.2909 23.581 23.6907 23.581C23.0904 23.581 22.5094 23.783 22.0499 24.1515C21.5904 24.52 21.2819 25.0313 21.1787 25.5954H16.2117L16.2107 22.5272ZM25.3037 25.5954H22.0757C22.1723 25.2576 22.3826 24.9595 22.6742 24.747C22.9659 24.5345 23.3227 24.4194 23.6897 24.4194C24.0567 24.4194 24.4135 24.5345 24.7051 24.747C24.9968 24.9595 25.2071 25.2576 25.3037 25.5954ZM37.5037 34.0702C37.5231 34.2587 37.4833 34.4485 37.3892 34.6153C37.2952 34.7822 37.1512 34.9185 36.9757 35.0071C36.783 35.0996 36.5721 35.1526 36.3567 35.1626H11.0217C10.8135 35.1531 10.6095 35.1038 10.4217 35.0176C10.2403 34.9313 10.0907 34.7945 9.9927 34.6254C9.89466 34.4562 9.85281 34.2626 9.87268 34.0702V27.5235C9.85325 27.335 9.89308 27.1452 9.98712 26.9784C10.0811 26.8115 10.2251 26.6751 10.4007 26.5866C10.5933 26.4941 10.8042 26.4411 11.0197 26.4311H36.3537C36.5618 26.4406 36.7659 26.4899 36.9537 26.5762C37.135 26.6624 37.2846 26.7992 37.3827 26.9684C37.4807 27.1375 37.5225 27.3311 37.5027 27.5235L37.5037 34.0702Z" fill="#05C818"/>
<path d="M16.2711 29.4122C16.2072 29.3196 16.1074 29.255 15.9937 29.2324C15.8799 29.2099 15.7614 29.2313 15.6641 29.292L14.4961 30.0228V28.7826C14.4989 28.726 14.4897 28.6694 14.469 28.6162C14.4482 28.5631 14.4164 28.5146 14.3754 28.4736C14.3344 28.4325 14.2851 28.3999 14.2304 28.3776C14.1758 28.3553 14.117 28.3438 14.0576 28.3438C13.9982 28.3438 13.9394 28.3553 13.8848 28.3776C13.8302 28.3999 13.7809 28.4325 13.7399 28.4736C13.6989 28.5146 13.667 28.5631 13.6463 28.6162C13.6255 28.6694 13.6163 28.726 13.6191 28.7826V30.0228L12.4511 29.292C12.3538 29.2353 12.2372 29.2169 12.1259 29.2408C12.0147 29.2646 11.9175 29.3289 11.855 29.4198C11.7925 29.5108 11.7696 29.6214 11.7911 29.7283C11.8125 29.8351 11.8768 29.9298 11.9701 29.9923L13.2581 30.7975L11.9701 31.6027C11.8768 31.6652 11.8125 31.7599 11.7911 31.8667C11.7696 31.9736 11.7925 32.0842 11.855 32.1752C11.9175 32.2662 12.0147 32.3304 12.1259 32.3543C12.2372 32.3781 12.3538 32.3597 12.4511 32.303L13.6191 31.5722V32.8125C13.6163 32.8691 13.6255 32.9257 13.6463 32.9788C13.667 33.0319 13.6989 33.0804 13.7399 33.1214C13.7809 33.1625 13.8302 33.1951 13.8848 33.2174C13.9394 33.2397 13.9982 33.2513 14.0576 33.2513C14.117 33.2513 14.1758 33.2397 14.2304 33.2174C14.2851 33.1951 14.3344 33.1625 14.3754 33.1214C14.4164 33.0804 14.4482 33.0319 14.469 32.9788C14.4897 32.9257 14.4989 32.8691 14.4961 32.8125V31.5722L15.6641 32.303C15.7614 32.3597 15.878 32.3781 15.9893 32.3543C16.1006 32.3304 16.1977 32.2662 16.2602 32.1752C16.3227 32.0842 16.3457 31.9736 16.3242 31.8667C16.3027 31.7599 16.2385 31.6652 16.1451 31.6027L14.8571 30.7975L16.1451 29.9923C16.2422 29.9313 16.31 29.8362 16.3336 29.7276C16.3572 29.619 16.3347 29.506 16.2711 29.4132V29.4122Z" fill="#05C818"/>
<path d="M22.8685 29.4122C22.8046 29.3196 22.7048 29.255 22.591 29.2324C22.4773 29.2099 22.3588 29.2313 22.2615 29.292L21.0935 30.0228V28.7826C21.0963 28.726 21.0871 28.6694 21.0663 28.6162C21.0456 28.5631 21.0137 28.5146 20.9728 28.4736C20.9318 28.4325 20.8824 28.3999 20.8278 28.3776C20.7732 28.3553 20.7144 28.3437 20.655 28.3438C20.5956 28.3437 20.5368 28.3553 20.4822 28.3776C20.4276 28.3999 20.3783 28.4325 20.3373 28.4736C20.2963 28.5146 20.2644 28.5631 20.2437 28.6162C20.2229 28.6694 20.2137 28.726 20.2165 28.7826V30.0228L19.0485 29.292C19.0003 29.2598 18.9459 29.2371 18.8884 29.2254C18.8309 29.2136 18.7715 29.213 18.7137 29.2236C18.656 29.2342 18.601 29.2557 18.5521 29.2869C18.5033 29.3181 18.4615 29.3584 18.4292 29.4053C18.397 29.4523 18.375 29.5049 18.3645 29.5601C18.354 29.6153 18.3552 29.672 18.3681 29.7268C18.381 29.7815 18.4053 29.8332 18.4395 29.8788C18.4738 29.9244 18.5173 29.963 18.5675 29.9923L19.8555 30.7975L18.5675 31.6027C18.4742 31.6652 18.4099 31.7599 18.3884 31.8667C18.3669 31.9736 18.3899 32.0842 18.4524 32.1752C18.5149 32.2662 18.6121 32.3304 18.7233 32.3543C18.8346 32.3781 18.9512 32.3597 19.0485 32.303L20.2165 31.5722V32.8125C20.2137 32.8691 20.2229 32.9257 20.2437 32.9788C20.2644 33.0319 20.2963 33.0804 20.3373 33.1214C20.3783 33.1625 20.4276 33.1951 20.4822 33.2174C20.5368 33.2397 20.5956 33.2513 20.655 33.2513C20.7144 33.2513 20.7732 33.2397 20.8278 33.2174C20.8824 33.1951 20.9318 33.1625 20.9728 33.1214C21.0137 33.0804 21.0456 33.0319 21.0663 32.9788C21.0871 32.9257 21.0963 32.8691 21.0935 32.8125V31.5722L22.2615 32.303C22.3588 32.3597 22.4754 32.3781 22.5867 32.3543C22.6979 32.3304 22.7951 32.2662 22.8576 32.1752C22.9201 32.0842 22.943 31.9736 22.9215 31.8667C22.9001 31.7599 22.8359 31.6652 22.7425 31.6027L21.4545 30.7975L22.7425 29.9923C22.7907 29.9621 22.8322 29.9231 22.8646 29.8777C22.897 29.8322 22.9197 29.781 22.9314 29.7272C22.9431 29.6733 22.9436 29.6178 22.9328 29.5637C22.922 29.5097 22.9002 29.4582 22.8685 29.4122Z" fill="#05C818"/>
<path d="M29.2028 29.4122C29.1389 29.3196 29.0392 29.255 28.9254 29.2324C28.8116 29.2099 28.6931 29.2313 28.5958 29.292L27.4278 30.0228V28.7826C27.4306 28.726 27.4214 28.6694 27.4007 28.6162C27.3799 28.5631 27.3481 28.5146 27.3071 28.4736C27.2661 28.4325 27.2168 28.3999 27.1622 28.3776C27.1075 28.3553 27.0488 28.3438 26.9893 28.3438C26.9299 28.3438 26.8711 28.3553 26.8165 28.3776C26.7619 28.3999 26.7126 28.4325 26.6716 28.4736C26.6306 28.5146 26.5987 28.5631 26.578 28.6162C26.5572 28.6694 26.548 28.726 26.5508 28.7826V30.0228L25.3828 29.292C25.2855 29.2353 25.1689 29.2169 25.0576 29.2408C24.9464 29.2646 24.8492 29.3289 24.7867 29.4198C24.7242 29.5108 24.7013 29.6214 24.7228 29.7283C24.7442 29.8351 24.8085 29.9298 24.9018 29.9923L26.1878 30.7966L24.8998 31.6018C24.8065 31.6642 24.7422 31.7589 24.7208 31.8658C24.6993 31.9726 24.7222 32.0832 24.7847 32.1742C24.8472 32.2652 24.9444 32.3294 25.0557 32.3533C25.1669 32.3771 25.2835 32.3588 25.3808 32.302L26.5488 31.5712V32.8115C26.546 32.8681 26.5552 32.9247 26.576 32.9778C26.5967 33.0309 26.6286 33.0794 26.6696 33.1205C26.7106 33.1615 26.7599 33.1942 26.8145 33.2165C26.8691 33.2388 26.9279 33.2503 26.9873 33.2503C27.0467 33.2503 27.1055 33.2388 27.1601 33.2165C27.2148 33.1942 27.2641 33.1615 27.3051 33.1205C27.3461 33.0794 27.3779 33.0309 27.3987 32.9778C27.4194 32.9247 27.4287 32.8681 27.4258 32.8115V31.5712L28.5938 32.302C28.6911 32.3588 28.8077 32.3771 28.919 32.3533C29.0303 32.3294 29.1274 32.2652 29.1899 32.1742C29.2524 32.0832 29.2754 31.9726 29.2539 31.8658C29.2324 31.7589 29.1682 31.6642 29.0748 31.6018L27.7878 30.7966L29.0758 29.9913C29.1731 29.9305 29.241 29.8354 29.2648 29.7268C29.2887 29.6183 29.2664 29.5051 29.2028 29.4122Z" fill="#05C818"/>
<path d="M35.5365 29.4122C35.4726 29.3196 35.3728 29.255 35.259 29.2324C35.1452 29.2099 35.0267 29.2313 34.9295 29.292L33.7615 30.0228V28.7826C33.7643 28.726 33.7551 28.6694 33.7343 28.6162C33.7136 28.5631 33.6817 28.5146 33.6407 28.4736C33.5997 28.4325 33.5504 28.3999 33.4958 28.3776C33.4412 28.3553 33.3824 28.3437 33.323 28.3438C33.2636 28.3437 33.2048 28.3553 33.1502 28.3776C33.0955 28.3999 33.0463 28.4325 33.0053 28.4736C32.9643 28.5146 32.9324 28.5631 32.9117 28.6162C32.8909 28.6694 32.8816 28.726 32.8845 28.7826V30.0228L31.7165 29.292C31.6683 29.2598 31.6139 29.2371 31.5564 29.2254C31.4989 29.2136 31.4395 29.213 31.3817 29.2236C31.3239 29.2342 31.269 29.2557 31.2201 29.2869C31.1713 29.3181 31.1294 29.3584 31.0972 29.4053C31.065 29.4523 31.0429 29.5049 31.0324 29.5601C31.0219 29.6153 31.0232 29.672 31.0361 29.7268C31.049 29.7815 31.0733 29.8332 31.1075 29.8788C31.1418 29.9244 31.1853 29.963 31.2355 29.9923L32.5235 30.7975L31.2355 31.6027C31.1421 31.6652 31.0779 31.7599 31.0564 31.8667C31.0349 31.9736 31.0579 32.0842 31.1204 32.1752C31.1829 32.2662 31.28 32.3304 31.3913 32.3543C31.5026 32.3781 31.6192 32.3597 31.7165 32.303L32.8845 31.5722V32.8125C32.8816 32.8691 32.8909 32.9257 32.9117 32.9788C32.9324 33.0319 32.9643 33.0804 33.0053 33.1214C33.0463 33.1625 33.0955 33.1951 33.1502 33.2174C33.2048 33.2397 33.2636 33.2513 33.323 33.2513C33.3824 33.2513 33.4412 33.2397 33.4958 33.2174C33.5504 33.1951 33.5997 33.1625 33.6407 33.1214C33.6817 33.0804 33.7136 33.0319 33.7343 32.9788C33.7551 32.9257 33.7643 32.8691 33.7615 32.8125V31.5722L34.9295 32.303C34.9776 32.3352 35.0321 32.3579 35.0896 32.3696C35.1471 32.3814 35.2065 32.382 35.2643 32.3714C35.322 32.3609 35.377 32.3393 35.4258 32.3081C35.4747 32.2769 35.5165 32.2366 35.5487 32.1897C35.581 32.1427 35.603 32.0901 35.6135 32.0349C35.624 31.9797 35.6228 31.923 35.6099 31.8683C35.597 31.8135 35.5727 31.7618 35.5384 31.7162C35.5042 31.6706 35.4607 31.632 35.4105 31.6027L34.1225 30.7975L35.4105 29.9923C35.4587 29.9621 35.5002 29.9231 35.5326 29.8777C35.565 29.8322 35.5877 29.781 35.5994 29.7272C35.6111 29.6733 35.6116 29.6178 35.6008 29.5637C35.59 29.5097 35.5681 29.4582 35.5365 29.4122Z" fill="#05C818"/>
</g>
<defs>
<clipPath id="clip0_611_9723">
<rect width="29.379" height="24" fill="white" transform="translate(9 12)"/>
</clipPath>
</defs>
</svg>
