<?xml version="1.0" encoding="UTF-8"?>
<svg version="1.1" xmlns="http://www.w3.org/2000/svg" width="32" height="32">
<path d="M0 0 C1.98 0 3.96 0 6 0 C6.66 1.32 7.32 2.64 8 4 C8.71027344 3.98839844 9.42054687 3.97679687 10.15234375 3.96484375 C11.07144531 3.95582031 11.99054687 3.94679688 12.9375 3.9375 C13.85402344 3.92589844 14.77054688 3.91429687 15.71484375 3.90234375 C18 4 18 4 19 5 C19.51747949 12.25993279 18.96088506 19.79929341 18 27 C16.16965945 28.83034055 13.26788008 28.13042797 10.8125 28.1328125 C9.55695312 28.13410156 8.30140625 28.13539062 7.0078125 28.13671875 C6.35071289 28.13462402 5.69361328 28.1325293 5.01660156 28.13037109 C3.00838665 28.12502234 1.00039541 28.13031691 -1.0078125 28.13671875 C-2.26335938 28.13542969 -3.51890625 28.13414063 -4.8125 28.1328125 C-5.97394531 28.13168457 -7.13539063 28.13055664 -8.33203125 28.12939453 C-11 28 -11 28 -12 27 C-12.96088506 19.79929341 -13.51747949 12.25993279 -13 5 C-12 4 -12 4 -9.71484375 3.90234375 C-8.34005859 3.91974609 -8.34005859 3.91974609 -6.9375 3.9375 C-6.01839844 3.94652344 -5.09929688 3.95554687 -4.15234375 3.96484375 C-3.44207031 3.97644531 -2.73179688 3.98804688 -2 4 C-1.34 2.68 -0.68 1.36 0 0 Z M-9 8 C-9 9.65 -9 11.3 -9 13 C-3.9923004 15.5038498 -1.58965017 16.24214448 4 15 C4.639375 15.20625 5.27875 15.4125 5.9375 15.625 C9.37910926 16.25074714 11.90669178 14.48716741 15 13 C15 11.35 15 9.7 15 8 C7.08 8 -0.84 8 -9 8 Z M-8 18 C-8 19.98 -8 21.96 -8 24 C-0.74 24 6.52 24 14 24 C14 22.02 14 20.04 14 18 C13.39671875 18.144375 12.7934375 18.28875 12.171875 18.4375 C10.97304688 18.7159375 10.97304688 18.7159375 9.75 19 C8.96109375 19.185625 8.1721875 19.37125 7.359375 19.5625 C3.42962172 20.29119597 0.0800264 19.90118268 -3.75 19 C-4.54921875 18.814375 -5.3484375 18.62875 -6.171875 18.4375 C-6.77515625 18.293125 -7.3784375 18.14875 -8 18 Z " fill="#71E5AF" transform="translate(13,2)"/>
</svg>
