<svg width="36" height="36" viewBox="0 0 36 36" fill="none" xmlns="http://www.w3.org/2000/svg">
<path d="M18.0005 0C13.2266 0 8.64823 1.89642 5.27258 5.27208C1.89692 8.64773 0.000500061 13.2261 0.000500061 18C-0.00429294 18.1718 0.0254098 18.3429 0.0878566 18.503C0.150303 18.6632 0.244228 18.8092 0.364071 18.9324C0.483915 19.0557 0.627245 19.1536 0.785595 19.2205C0.943946 19.2874 1.1141 19.3219 1.286 19.3219C1.4579 19.3219 1.62805 19.2874 1.7864 19.2205C1.94475 19.1536 2.08808 19.0557 2.20793 18.9324C2.32777 18.8092 2.4217 18.6632 2.48414 18.503C2.54659 18.3429 2.57629 18.1718 2.5715 18C2.5715 13.9081 4.197 9.98381 7.0904 7.0904C9.98381 4.197 13.9081 2.5715 18 2.5715C22.0919 2.5715 26.0162 4.197 28.9096 7.0904C31.803 9.98381 33.4285 13.9081 33.4285 18C33.4285 18.3411 33.564 18.6682 33.8052 18.9093C34.0463 19.1505 34.3734 19.286 34.7145 19.286C35.0556 19.286 35.3827 19.1505 35.6238 18.9093C35.865 18.6682 36.0005 18.3411 36.0005 18C36.0005 13.2261 34.1041 8.64773 30.7284 5.27208C27.3528 1.89642 22.7744 0 18.0005 0Z" fill="white"/>
<path d="M18.0012 6.42773C16.4816 6.4276 14.9768 6.7268 13.5729 7.30824C12.1689 7.88967 10.8932 8.74197 9.81863 9.81645C8.74406 10.8909 7.89166 12.1666 7.3101 13.5705C6.72854 14.9744 6.42921 16.4791 6.42921 17.9987C6.42442 18.1706 6.45412 18.3416 6.51657 18.5018C6.57901 18.6619 6.67294 18.8079 6.79278 18.9312C6.91263 19.0544 7.05596 19.1524 7.21431 19.2192C7.37266 19.2861 7.54282 19.3206 7.71472 19.3206C7.88662 19.3206 8.05676 19.2861 8.21511 19.2192C8.37347 19.1524 8.5168 19.0544 8.63664 18.9312C8.75648 18.8079 8.85041 18.6619 8.91285 18.5018C8.9753 18.3416 9.005 18.1706 9.00021 17.9987C9.00021 15.6118 9.94843 13.3226 11.6363 11.6348C13.3241 9.94695 15.6133 8.99873 18.0002 8.99873C20.3872 8.99873 22.6763 9.94695 24.3642 11.6348C26.052 13.3226 27.0002 15.6118 27.0002 17.9987C26.9954 18.1706 27.0251 18.3416 27.0876 18.5018C27.15 18.6619 27.2439 18.8079 27.3638 18.9312C27.4836 19.0544 27.627 19.1524 27.7853 19.2192C27.9437 19.2861 28.1138 19.3206 28.2857 19.3206C28.4576 19.3206 28.6278 19.2861 28.7861 19.2192C28.9445 19.1524 29.0878 19.0544 29.2076 18.9312C29.3275 18.8079 29.4214 18.6619 29.4839 18.5018C29.5463 18.3416 29.576 18.1706 29.5712 17.9987C29.5712 14.9303 28.3524 11.9874 26.1829 9.81751C24.0133 7.64759 21.0697 6.42826 18.0012 6.42773Z" fill="white"/>
<path d="M23.1451 17.9978C23.1482 17.0351 22.8811 16.0909 22.3742 15.2725C21.8672 14.4542 21.1408 13.7945 20.2774 13.3686C19.4141 12.9427 18.4486 12.7677 17.4907 12.8634C16.5328 12.9591 15.621 13.3217 14.859 13.9101C14.0971 14.4984 13.5155 15.2887 13.1805 16.1912C12.8455 17.0937 12.7706 18.0721 12.9641 19.0151C13.1577 19.9581 13.6121 20.8279 14.2756 21.5254C14.939 22.2229 15.7849 22.7202 16.7171 22.9608V33.4268H14.1461C13.9742 33.422 13.8032 33.4517 13.643 33.5141C13.4829 33.5766 13.3369 33.6705 13.2136 33.7903C13.0904 33.9102 12.9925 34.0535 12.9256 34.2119C12.8587 34.3702 12.8242 34.5404 12.8242 34.7123C12.8242 34.8842 12.8587 35.0543 12.9256 35.2127C12.9925 35.371 13.0904 35.5144 13.2136 35.6342C13.3369 35.754 13.4829 35.848 13.643 35.9104C13.8032 35.9729 13.9742 36.0026 14.1461 35.9978H21.8581C22.0299 36.0026 22.2009 35.9729 22.3611 35.9104C22.5212 35.848 22.6673 35.754 22.7905 35.6342C22.9137 35.5144 23.0117 35.371 23.0786 35.2127C23.1455 35.0543 23.1799 34.8842 23.1799 34.7123C23.1799 34.5404 23.1455 34.3702 23.0786 34.2119C23.0117 34.0535 22.9137 33.9102 22.7905 33.7903C22.6673 33.6705 22.5212 33.5766 22.3611 33.5141C22.2009 33.4517 22.0299 33.422 21.8581 33.4268H19.2881V22.9648C20.3892 22.6804 21.3651 22.039 22.063 21.141C22.7608 20.243 23.1414 19.1391 23.1451 18.0018V17.9978ZM15.4311 17.9978C15.4311 17.403 15.6373 16.8265 16.0147 16.3668C16.392 15.907 16.9172 15.5923 17.5005 15.4762C18.0839 15.3602 18.6895 15.45 19.2141 15.7304C19.7387 16.0108 20.1498 16.4644 20.3774 17.014C20.605 17.5635 20.635 18.175 20.4623 18.7442C20.2897 19.3134 19.925 19.8051 19.4304 20.1356C18.9358 20.466 18.342 20.6147 17.75 20.5564C17.1581 20.4981 16.6046 20.2364 16.1841 19.8158C15.7016 19.3337 15.4304 18.6798 15.4301 17.9978H15.4311Z" fill="white"/>
</svg>
