<?xml version="1.0" encoding="UTF-8"?>
<svg version="1.1" xmlns="http://www.w3.org/2000/svg" width="32" height="32">
<path d="M0 0 C2.62527189 -0.05382106 5.24944713 -0.09358313 7.875 -0.125 C8.62136719 -0.14175781 9.36773437 -0.15851563 10.13671875 -0.17578125 C12.09194461 -0.1933959 14.04742021 -0.10320189 16 0 C18.44986932 2.44986932 18.25631311 3.137078 18.265625 6.5 C18.26949219 7.8303125 18.26949219 7.8303125 18.2734375 9.1875 C18.26570313 10.115625 18.25796875 11.04375 18.25 12 C18.25773437 12.928125 18.26546875 13.85625 18.2734375 14.8125 C18.27085938 15.699375 18.26828125 16.58625 18.265625 17.5 C18.26336914 18.3146875 18.26111328 19.129375 18.25878906 19.96875 C18 22 18 22 16 24 C13.96875 24.25878906 13.96875 24.25878906 11.5 24.265625 C10.613125 24.26820312 9.72625 24.27078125 8.8125 24.2734375 C7.884375 24.26570313 6.95625 24.25796875 6 24.25 C4.6078125 24.26160156 4.6078125 24.26160156 3.1875 24.2734375 C1.8571875 24.26957031 1.8571875 24.26957031 0.5 24.265625 C-0.3146875 24.26336914 -1.129375 24.26111328 -1.96875 24.25878906 C-4 24 -4 24 -6 22 C-6.14507695 19.25514407 -6.18652423 16.61519457 -6.125 13.875 C-6.11146484 12.74384766 -6.11146484 12.74384766 -6.09765625 11.58984375 C-6.0740687 9.72642746 -6.03819719 7.86317407 -6 6 C-4.02 6 -2.04 6 0 6 C0 4.02 0 2.04 0 0 Z M2 2 C2 3.32 2 4.64 2 6 C4.64 6 7.28 6 10 6 C10 4.68 10 3.36 10 2 C7.36 2 4.72 2 2 2 Z M12 2 C12 3.32 12 4.64 12 6 C13.32 5.67 14.64 5.34 16 5 C15.02149805 3.97895449 14.02019573 2.9793879 13 2 C12.67 2 12.34 2 12 2 Z M-4 8 C-4 10.64 -4 13.28 -4 16 C-2.68 16 -1.36 16 0 16 C0 13.36 0 10.72 0 8 C-1.32 8 -2.64 8 -4 8 Z M2 8 C2 10.64 2 13.28 2 16 C4.64 16 7.28 16 10 16 C10 13.36 10 10.72 10 8 C7.36 8 4.72 8 2 8 Z M12 8 C12 10.64 12 13.28 12 16 C13.32 16 14.64 16 16 16 C16 13.36 16 10.72 16 8 C14.68 8 13.36 8 12 8 Z M-4 18 C-3.67 18.99 -3.34 19.98 -3 21 C-2.01 21.33 -1.02 21.66 0 22 C0 20.68 0 19.36 0 18 C-1.32 18 -2.64 18 -4 18 Z M2 18 C2 19.32 2 20.64 2 22 C4.64 22 7.28 22 10 22 C10 20.68 10 19.36 10 18 C7.36 18 4.72 18 2 18 Z M12 18 C12.33 19.32 12.66 20.64 13 22 C13.99 21.01 14.98 20.02 16 19 C14.68 18.67 13.36 18.34 12 18 Z " fill="#93EBA2" transform="translate(10,4)"/>
<path d="M0 0 C1.65 0 3.3 0 5 0 C5 0.66 5 1.32 5 2 C4.01 2 3.02 2 2 2 C2 3.32 2 4.64 2 6 C3.65 6 5.3 6 7 6 C6.67 6.66 6.34 7.32 6 8 C4.68 8 3.36 8 2 8 C2 10.64 2 13.28 2 16 C4.31 16 6.62 16 9 16 C8.67 16.66 8.34 17.32 8 18 C6.02 18 4.04 18 2 18 C2 19.32 2 20.64 2 22 C2.66 22.33 3.32 22.66 4 23 C3 24 3 24 -0.4375 24.1875 C-4 24 -4 24 -6 22 C-6.14507695 19.25514407 -6.18652423 16.61519457 -6.125 13.875 C-6.11146484 12.74384766 -6.11146484 12.74384766 -6.09765625 11.58984375 C-6.0740687 9.72642746 -6.03819719 7.86317407 -6 6 C-4.02 6 -2.04 6 0 6 C0 4.02 0 2.04 0 0 Z M-4 8 C-4 10.64 -4 13.28 -4 16 C-2.68 16 -1.36 16 0 16 C0 13.36 0 10.72 0 8 C-1.32 8 -2.64 8 -4 8 Z M-4 18 C-3.67 18.99 -3.34 19.98 -3 21 C-2.01 21.33 -1.02 21.66 0 22 C0 20.68 0 19.36 0 18 C-1.32 18 -2.64 18 -4 18 Z " fill="#59E0B9" transform="translate(10,4)"/>
<path d="M0 0 C0.33 0 0.66 0 1 0 C1 2.31 1 4.62 1 7 C3.31 7 5.62 7 8 7 C7.67 7.66 7.34 8.32 7 9 C5.02 9 3.04 9 1 9 C1 10.32 1 11.64 1 13 C1.66 13.33 2.32 13.66 3 14 C2 15 2 15 -1.4375 15.25 C-2.613125 15.1675 -3.78875 15.085 -5 15 C-5.66 14.01 -6.32 13.02 -7 12 C-6.01 11.67 -5.02 11.34 -4 11 C-3.34 11.33 -2.68 11.66 -2 12 C-1.67 11.01 -1.34 10.02 -1 9 C-1.99 9 -2.98 9 -4 9 C-4 8.34 -4 7.68 -4 7 C-3.01 7 -2.02 7 -1 7 C-1.020625 6.030625 -1.04125 5.06125 -1.0625 4.0625 C-1 1 -1 1 0 0 Z " fill="#5DE1B7" transform="translate(11,13)"/>
<path d="M0 0 C2.31 0 4.62 0 7 0 C7 1.98 7 3.96 7 6 C7.66 6 8.32 6 9 6 C9 6.66 9 7.32 9 8 C8.34 8 7.68 8 7 8 C7 10.31 7 12.62 7 15 C6.01 15.495 6.01 15.495 5 16 C5 13.36 5 10.72 5 8 C3.68 7.67 2.36 7.34 1 7 C2.32 6.67 3.64 6.34 5 6 C5 4.68 5 3.36 5 2 C3.35 2 1.7 2 0 2 C0 1.34 0 0.68 0 0 Z " fill="#7FE8A9" transform="translate(15,4)"/>
<path d="M0 0 C0.99 0.33 1.98 0.66 3 1 C3 5.29 3 9.58 3 14 C2.01 14.33 1.02 14.66 0 15 C0 10.05 0 5.1 0 0 Z " fill="#41DCC2" transform="translate(4,10)"/>
<path d="M0 0 C0.625 1.875 0.625 1.875 1 4 C-1 6 -1 6 -3.625 6.125 C-4.40875 6.08375 -5.1925 6.0425 -6 6 C-5.34 5.01 -4.68 4.02 -4 3 C-3.34 3 -2.68 3 -2 3 C-2 2.34 -2 1.68 -2 1 C-1.34 0.67 -0.68 0.34 0 0 Z " fill="#A0ED9C" transform="translate(27,22)"/>
</svg>
