<?xml version="1.0" encoding="UTF-8"?>
<svg version="1.1" xmlns="http://www.w3.org/2000/svg" width="32" height="32">
<path d="M0 0 C2.82603506 2.89668593 2.86287244 3.46199853 2.875 7.3125 C2.7788797 8.73141872 2.66301505 10.14970294 2.5 11.5625 C1.84 11.5625 1.18 11.5625 0.5 11.5625 C0.17 9.2525 -0.16 6.9425 -0.5 4.5625 C-1.03625 4.8925 -1.5725 5.2225 -2.125 5.5625 C-5.07217367 6.80341523 -7.32934784 6.76928166 -10.5 6.5625 C-11.16 6.2325 -11.82 5.9025 -12.5 5.5625 C-12.5 4.9025 -12.5 4.2425 -12.5 3.5625 C-13.49 3.5625 -14.48 3.5625 -15.5 3.5625 C-15.17 9.5025 -14.84 15.4425 -14.5 21.5625 C-11.53 21.8925 -8.56 22.2225 -5.5 22.5625 C-5.5 23.2225 -5.5 23.8825 -5.5 24.5625 C-7.47909398 24.58936553 -9.45828971 24.60883375 -11.4375 24.625 C-12.53964844 24.63660156 -13.64179688 24.64820312 -14.77734375 24.66015625 C-17.5 24.5625 -17.5 24.5625 -18.5 23.5625 C-18.75098924 20.09041193 -18.68522096 16.6050938 -18.6875 13.125 C-18.69974609 12.14466797 -18.71199219 11.16433594 -18.72460938 10.15429688 C-18.72750977 8.74954102 -18.72750977 8.74954102 -18.73046875 7.31640625 C-18.73457764 6.45345947 -18.73868652 5.5905127 -18.74291992 4.70141602 C-18.5 2.5625 -18.5 2.5625 -16.5 0.5625 C-10.9064743 -2.39877831 -5.70123206 -2.34157745 0 0 Z M-9.5 0.5625 C-9.5 1.5525 -9.5 2.5425 -9.5 3.5625 C-8.18 3.5625 -6.86 3.5625 -5.5 3.5625 C-5.83 2.5725 -6.16 1.5825 -6.5 0.5625 C-7.49 0.5625 -8.48 0.5625 -9.5 0.5625 Z " fill="#41DBC2" transform="translate(22.5,4.4375)"/>
<path d="M0 0 C1.9375 1.6875 1.9375 1.6875 3 4 C2.92897215 7.4803645 2.61415498 9.29485909 0.3125 11.9375 C-2.89943934 13.41325591 -4.66474802 13.06444212 -8 12 C-9.9375 10.3125 -9.9375 10.3125 -11 8 C-10.92897215 4.5196355 -10.61415498 2.70514091 -8.3125 0.0625 C-5.10056066 -1.41325591 -3.33525198 -1.06444212 0 0 Z M-3 2 C-3 2.99 -3 3.98 -3 5 C-2.34 5 -1.68 5 -1 5 C-1.33 4.01 -1.66 3.02 -2 2 C-2.33 2 -2.66 2 -3 2 Z M-7 3 C-7.69159401 4.84725052 -7.69159401 4.84725052 -8 7 C-7.01 8.485 -7.01 8.485 -6 10 C-3.52733235 9.65555119 -3.52733235 9.65555119 -1 9 C-0.67 8.34 -0.34 7.68 0 7 C-1.65 7 -3.3 7 -5 7 C-5 5.68 -5 4.36 -5 3 C-5.66 3 -6.32 3 -7 3 Z " fill="#A6EF9A" transform="translate(28,18)"/>
<path d="M0 0 C0.66 0.33 1.32 0.66 2 1 C2 7.6 2 14.2 2 21 C4.97 21.33 7.94 21.66 11 22 C11 22.66 11 23.32 11 24 C9.02090602 24.02686553 7.04171029 24.04633375 5.0625 24.0625 C3.96035156 24.07410156 2.85820312 24.08570312 1.72265625 24.09765625 C-1 24 -1 24 -2 23 C-2.25098924 19.52791193 -2.18522096 16.0425938 -2.1875 12.5625 C-2.19974609 11.58216797 -2.21199219 10.60183594 -2.22460938 9.59179688 C-2.22750977 8.18704102 -2.22750977 8.18704102 -2.23046875 6.75390625 C-2.23457764 5.89095947 -2.23868652 5.0280127 -2.24291992 4.13891602 C-2 2 -2 2 0 0 Z " fill="#3CDAC4" transform="translate(6,5)"/>
<path d="M0 0 C-0.375 1.9375 -0.375 1.9375 -1 4 C-1.99 4.495 -1.99 4.495 -3 5 C-2.47731534 7.76276177 -1.89130413 10.3260876 -1 13 C-2.875 12.6875 -2.875 12.6875 -5 12 C-7 9 -7 9 -6.875 6 C-6 3 -6 3 -4.0625 1.125 C-2 0 -2 0 0 0 Z " fill="#76E6AC" transform="translate(24,17)"/>
<path d="M0 0 C3.875 0.875 3.875 0.875 5 2 C5.07179964 3.51928038 5.08392007 5.04167482 5.0625 6.5625 C5.05347656 7.38878906 5.04445313 8.21507812 5.03515625 9.06640625 C5.01775391 10.02353516 5.01775391 10.02353516 5 11 C4.34 11 3.68 11 3 11 C2.87625 9.865625 2.7525 8.73125 2.625 7.5625 C2.41875 6.386875 2.2125 5.21125 2 4 C1.34 3.67 0.68 3.34 0 3 C0 2.01 0 1.02 0 0 Z " fill="#85E9A7" transform="translate(20,5)"/>
<path d="M0 0 C2.475 0.495 2.475 0.495 5 1 C5.125 3.375 5.125 3.375 5 6 C4.34 6.66 3.68 7.32 3 8 C2.01 7.67 1.02 7.34 0 7 C0.2784375 6.1028125 0.2784375 6.1028125 0.5625 5.1875 C1.22093687 2.83591238 1.22093687 2.83591238 0 0 Z " fill="#5EE1B6" transform="translate(15,3)"/>
<path d="M0 0 C3.3 0.33 6.6 0.66 10 1 C10 1.66 10 2.32 10 3 C6.04 3 2.08 3 -2 3 C-1.34 2.01 -0.68 1.02 0 0 Z " fill="#5CE1B7" transform="translate(7,26)"/>
<path d="M0 0 C0.99 0.33 1.98 0.66 3 1 C2.34 2.65 1.68 4.3 1 6 C1.66 6 2.32 6 3 6 C3 6.66 3 7.32 3 8 C1.68 8 0.36 8 -1 8 C-1.125 2.25 -1.125 2.25 0 0 Z " fill="#93ECA1" transform="translate(24,17)"/>
<path d="M0 0 C2.31 0 4.62 0 7 0 C7 0.99 7 1.98 7 3 C4.36 3 1.72 3 -1 3 C-0.67 2.01 -0.34 1.02 0 0 Z " fill="#49DDBF" transform="translate(10,13)"/>
<path d="M0 0 C0.33 1.32 0.66 2.64 1 4 C-0.98 4.33 -2.96 4.66 -5 5 C-4 2 -4 2 -1.9375 0.8125 C-1.298125 0.544375 -0.65875 0.27625 0 0 Z " fill="#98EB9F" transform="translate(27,26)"/>
<path d="M0 0 C2.31 0 4.62 0 7 0 C7 0.66 7 1.32 7 2 C4.69 2 2.38 2 0 2 C0 1.34 0 0.68 0 0 Z " fill="#48DDBF" transform="translate(9,19)"/>
</svg>
