<?xml version="1.0" encoding="UTF-8"?>
<svg version="1.1" xmlns="http://www.w3.org/2000/svg" width="33" height="33">
<path d="M0 0 C3.95831809 -0.02892857 7.91660917 -0.04677427 11.875 -0.0625 C13.56689453 -0.07506836 13.56689453 -0.07506836 15.29296875 -0.08789062 C16.36933594 -0.09111328 17.44570313 -0.09433594 18.5546875 -0.09765625 C19.54968262 -0.10289307 20.54467773 -0.10812988 21.56982422 -0.11352539 C24 0 24 0 26 1 C26.02892857 4.95831809 26.04677427 8.91660917 26.0625 12.875 C26.07087891 14.00292969 26.07925781 15.13085938 26.08789062 16.29296875 C26.09272461 17.90751953 26.09272461 17.90751953 26.09765625 19.5546875 C26.10551147 21.04718018 26.10551147 21.04718018 26.11352539 22.56982422 C26 25 26 25 25 27 C21.04168191 27.02892857 17.08339083 27.04677427 13.125 27.0625 C11.43310547 27.07506836 11.43310547 27.07506836 9.70703125 27.08789062 C8.63066406 27.09111328 7.55429688 27.09433594 6.4453125 27.09765625 C5.45031738 27.10289307 4.45532227 27.10812988 3.43017578 27.11352539 C1 27 1 27 -1 26 C-1.02892857 22.04168191 -1.04677427 18.08339083 -1.0625 14.125 C-1.07087891 12.99707031 -1.07925781 11.86914062 -1.08789062 10.70703125 C-1.09111328 9.63066406 -1.09433594 8.55429688 -1.09765625 7.4453125 C-1.10289307 6.45031738 -1.10812988 5.45532227 -1.11352539 4.43017578 C-1 2 -1 2 0 0 Z M2 4 C1.90139869 5.40348735 1.86921063 6.81180477 1.8671875 8.21875 C1.86589844 9.06824219 1.86460938 9.91773438 1.86328125 10.79296875 C1.86714844 11.68628906 1.87101563 12.57960938 1.875 13.5 C1.87113281 14.39332031 1.86726562 15.28664063 1.86328125 16.20703125 C1.86457031 17.05652344 1.86585937 17.90601563 1.8671875 18.78125 C1.86831543 19.56564453 1.86944336 20.35003906 1.87060547 21.15820312 C1.79892558 23.01752988 1.79892558 23.01752988 3 24 C4.40348735 24.09860131 5.81180477 24.13078937 7.21875 24.1328125 C8.06824219 24.13410156 8.91773438 24.13539062 9.79296875 24.13671875 C10.68628906 24.13285156 11.57960938 24.12898438 12.5 24.125 C13.83998047 24.13080078 13.83998047 24.13080078 15.20703125 24.13671875 C16.48126953 24.13478516 16.48126953 24.13478516 17.78125 24.1328125 C18.56564453 24.13168457 19.35003906 24.13055664 20.15820312 24.12939453 C22.01752988 24.20107442 22.01752988 24.20107442 23 23 C23.09860131 21.59651265 23.13078937 20.18819523 23.1328125 18.78125 C23.13410156 17.93175781 23.13539062 17.08226562 23.13671875 16.20703125 C23.13091797 14.86705078 23.13091797 14.86705078 23.125 13.5 C23.12886719 12.60667969 23.13273437 11.71335937 23.13671875 10.79296875 C23.13542969 9.94347656 23.13414063 9.09398437 23.1328125 8.21875 C23.13168457 7.43435547 23.13055664 6.64996094 23.12939453 5.84179688 C23.20107442 3.98247012 23.20107442 3.98247012 22 3 C20.59651265 2.90139869 19.18819523 2.86921063 17.78125 2.8671875 C16.93175781 2.86589844 16.08226562 2.86460938 15.20703125 2.86328125 C14.31371094 2.86714844 13.42039062 2.87101563 12.5 2.875 C11.16001953 2.86919922 11.16001953 2.86919922 9.79296875 2.86328125 C8.51873047 2.86521484 8.51873047 2.86521484 7.21875 2.8671875 C6.0421582 2.86887939 6.0421582 2.86887939 4.84179688 2.87060547 C2.98247012 2.79892558 2.98247012 2.79892558 2 4 Z " fill="#67E3B3" transform="translate(4,3)"/>
<path d="M0 0 C0.99 0 1.98 0 3 0 C3 5.61 3 11.22 3 17 C2.01 17 1.02 17 0 17 C0 11.39 0 5.78 0 0 Z " fill="#71E5AF" transform="translate(15,8)"/>
<path d="M0 0 C0.99 0.33 1.98 0.66 3 1 C3 4.3 3 7.6 3 11 C1.68 11 0.36 11 -1 11 C-1.02688151 9.35425434 -1.04634123 7.70838587 -1.0625 6.0625 C-1.07410156 5.14597656 -1.08570312 4.22945312 -1.09765625 3.28515625 C-1 1 -1 1 0 0 Z " fill="#8BE9A4" transform="translate(22,13)"/>
<path d="M0 0 C0.33 0 0.66 0 1 0 C1.125 6.75 1.125 6.75 0 9 C-2.31 9 -4.62 9 -7 9 C-6.67 8.01 -6.34 7.02 -6 6 C-5.01 5.67 -4.02 5.34 -3 5 C-1.9590934 3.35857037 -0.95495674 1.69287785 0 0 Z " fill="#A0EE9C" transform="translate(29,21)"/>
<path d="M0 0 C0.99 0.33 1.98 0.66 3 1 C3 3.31 3 5.62 3 8 C1.68 8 0.36 8 -1 8 C-1.04241723 5.66705225 -1.04092937 3.33297433 -1 1 C-0.67 0.67 -0.34 0.34 0 0 Z " fill="#59E1B8" transform="translate(9,16)"/>
<path d="M0 0 C2.97 0 5.94 0 9 0 C8.67 0.99 8.34 1.98 8 3 C5.03 3 2.06 3 -1 3 C-0.67 2.01 -0.34 1.02 0 0 Z " fill="#7DE7AA" transform="translate(14,27)"/>
</svg>
