<?xml version="1.0" encoding="UTF-8"?>
<svg version="1.1" xmlns="http://www.w3.org/2000/svg" width="32" height="32">
<path d="M0 0 C7.92 0 15.84 0 24 0 C24 7.92 24 15.84 24 24 C16.08 24 8.16 24 0 24 C0 16.08 0 8.16 0 0 Z M3 3 C3 8.94 3 14.88 3 21 C3.99 20.67 4.98 20.34 6 20 C5.34 20 4.68 20 4 20 C6.625 16.125 6.625 16.125 10 15 C10 14.34 10 13.68 10 13 C9.34 13 8.68 13 8 13 C7.95758277 10.66705225 7.95907063 8.33297433 8 6 C9 5 9 5 12 4.875 C15 5 15 5 16 6 C16.04092937 8.33297433 16.04241723 10.66705225 16 13 C15.01 13.495 15.01 13.495 14 14 C15.2065625 14.6496875 15.2065625 14.6496875 16.4375 15.3125 C19 17 19 17 20 20 C19.29875 19.67 18.5975 19.34 17.875 19 C14.67262761 17.88613134 12.36585848 17.62601572 9 18 C8.01 19.485 8.01 19.485 7 21 C11.62 21 16.24 21 21 21 C21 15.06 21 9.12 21 3 C15.06 3 9.12 3 3 3 Z M11 7 C11 7.99 11 8.98 11 10 C11.99 9.67 12.98 9.34 14 9 C13.67 8.34 13.34 7.68 13 7 C12.34 7 11.68 7 11 7 Z " fill="#70E5AF" transform="translate(4,4)"/>
<path d="M0 0 C4.62 0 9.24 0 14 0 C14 7.92 14 15.84 14 24 C8.06 24 2.12 24 -4 24 C-3.505 22.515 -3.505 22.515 -3 21 C1.62 21 6.24 21 11 21 C11 15.06 11 9.12 11 3 C7.04 3 3.08 3 -1 3 C-0.67 2.01 -0.34 1.02 0 0 Z " fill="#9EEE9D" transform="translate(14,4)"/>
<path d="M0 0 C3.3 0 6.6 0 10 0 C9.67 0.99 9.34 1.98 9 3 C7.02 3 5.04 3 3 3 C3 8.94 3 14.88 3 21 C4.32 21 5.64 21 7 21 C6.67 21.99 6.34 22.98 6 24 C4.02 24 2.04 24 0 24 C0 16.08 0 8.16 0 0 Z " fill="#47DDC0" transform="translate(4,4)"/>
<path d="M0 0 C4.62 0 9.24 0 14 0 C14 1.65 14 3.3 14 5 C13.01 5.66 12.02 6.32 11 7 C11 5.68 11 4.36 11 3 C7.04 3 3.08 3 -1 3 C-0.67 2.01 -0.34 1.02 0 0 Z " fill="#95ECA0" transform="translate(14,4)"/>
<path d="M0 0 C1.32 0 2.64 0 4 0 C3.67 0.7425 3.34 1.485 3 2.25 C1.77217129 5.13883312 1.77217129 5.13883312 2 9 C1.01 9 0.02 9 -1 9 C-1.625 5.625 -1.625 5.625 -2 2 C-1.34 1.34 -0.68 0.68 0 0 Z " fill="#64E2B4" transform="translate(13,8)"/>
<path d="M0 0 C2.97 0 5.94 0 9 0 C8.67 0.99 8.34 1.98 8 3 C5.03 3 2.06 3 -1 3 C-0.67 2.01 -0.34 1.02 0 0 Z " fill="#73E5AE" transform="translate(11,25)"/>
<path d="M0 0 C2.64 0 5.28 0 8 0 C8 0.99 8 1.98 8 3 C5.03 3 2.06 3 -1 3 C-0.67 2.01 -0.34 1.02 0 0 Z " fill="#72E5AF" transform="translate(14,4)"/>
<path d="M0 0 C1.65 0.33 3.3 0.66 5 1 C5.33 2.32 5.66 3.64 6 5 C1.25 4.25 1.25 4.25 -1 2 C-0.67 1.34 -0.34 0.68 0 0 Z " fill="#8AEAA5" transform="translate(18,19)"/>
</svg>
