<svg width="33" height="32" viewBox="0 0 33 32" fill="none" xmlns="http://www.w3.org/2000/svg">
<g clip-path="url(#clip0_743_13114)">
<rect x="0.0410156" y="0.92041" width="32" height="30.72" rx="15.36" fill="black" fill-opacity="0.1"/>
<g clip-path="url(#clip1_743_13114)">
<g clip-path="url(#clip2_743_13114)">
<path d="M30.7639 16.2804C30.7639 7.79732 23.887 0.92041 15.4039 0.92041C6.92085 0.92041 0.0439453 7.79732 0.0439453 16.2804C0.0439453 24.7635 6.92085 31.6404 15.4039 31.6404C23.887 31.6404 30.7639 24.7635 30.7639 16.2804Z" fill="#FFA800"/>
<path fill-rule="evenodd" clip-rule="evenodd" d="M20.4568 14.5356C20.2957 15.6477 19.7148 16.3205 18.7139 16.5541C19.3705 16.8936 19.8164 17.3299 20.0517 17.8628C20.2871 18.3957 20.2635 19.0671 19.9809 19.877C19.8344 20.2902 19.6453 20.6391 19.4135 20.9235C19.1818 21.208 18.9238 21.4259 18.6396 21.5771C18.3553 21.7283 18.0229 21.8312 17.6423 21.8859C17.2617 21.9405 16.8738 21.9538 16.4789 21.9257C16.0839 21.8977 15.6389 21.8352 15.1438 21.738L14.5797 24.0195L13.2018 23.6788L13.7572 21.4331C13.28 21.3151 12.9169 21.2221 12.6678 21.1542L12.1103 23.4088L10.7325 23.0682L11.2966 20.7866C11.1893 20.7601 11.0286 20.7188 10.8146 20.6627C10.6006 20.6066 10.437 20.5646 10.3236 20.5365L8.53418 20.094L9.21642 18.5253L10.2096 18.7709C10.5078 18.8446 10.7184 18.7353 10.8413 18.4429L11.7308 14.8462L11.8739 14.8816C11.8396 14.8668 11.7926 14.852 11.733 14.8373L12.368 12.2695C12.3908 11.8446 12.1755 11.5762 11.7221 11.4641L10.729 11.2185L11.0919 9.75118L12.9864 10.2292C13.3682 10.3236 13.6582 10.3921 13.8565 10.4349L14.4141 8.18018L15.7919 8.52091L15.2454 10.7308C15.7375 10.8399 16.1028 10.9239 16.3414 10.9829L16.8835 8.79086L18.2613 9.1316L17.7038 11.3863C18.1646 11.5445 18.5656 11.7149 18.9066 11.8973C19.2475 12.0798 19.5514 12.2973 19.818 12.55C20.0846 12.8026 20.2732 13.0961 20.3836 13.4304C20.494 13.7646 20.5184 14.133 20.4568 14.5356ZM17.3274 18.936C17.3805 18.7213 17.3829 18.5194 17.3348 18.3302C17.2866 18.1411 17.2101 17.9766 17.1055 17.8368C17.0008 17.697 16.8518 17.5636 16.6585 17.4367C16.4652 17.3098 16.2835 17.2063 16.1134 17.1262C15.9433 17.0462 15.7293 16.9648 15.4713 16.882C15.2132 16.7992 15.0096 16.7393 14.8605 16.7025C14.7114 16.6656 14.5183 16.621 14.2813 16.5687C14.0441 16.5164 13.9017 16.4844 13.8541 16.4726L13.1062 19.4967C13.1539 19.5085 13.2639 19.5373 13.4361 19.5831C13.6084 19.6288 13.7511 19.6657 13.8645 19.6937C13.9778 19.7217 14.137 19.7564 14.342 19.7975C14.547 19.8387 14.7245 19.87 14.8743 19.8912C15.0241 19.9124 15.2004 19.9291 15.403 19.9413C15.6057 19.9534 15.7816 19.9526 15.9306 19.9388C16.0796 19.925 16.2367 19.8974 16.402 19.856C16.5673 19.8146 16.7073 19.7543 16.8218 19.675C16.9364 19.5957 17.0389 19.4945 17.1295 19.3713C17.2201 19.2481 17.2861 19.1031 17.3274 18.936ZM17.7629 13.969C17.7998 14.1396 17.794 14.3233 17.7453 14.5201C17.704 14.6871 17.6395 14.8326 17.5519 14.9565C17.4643 15.0804 17.3554 15.1753 17.2252 15.2412C17.0949 15.3072 16.9647 15.3604 16.8344 15.4009C16.7041 15.4415 16.5458 15.4609 16.3595 15.4592C16.1732 15.4574 16.0116 15.4522 15.8744 15.4436C15.7373 15.435 15.5692 15.4109 15.3701 15.3712C15.1711 15.3314 15.0205 15.3005 14.9184 15.2784C14.8162 15.2563 14.6775 15.222 14.5023 15.1755C14.3271 15.129 14.2246 15.1021 14.1948 15.0947L14.874 12.348C14.9157 12.3583 15.034 12.3859 15.2285 12.4309C15.4231 12.4759 15.5849 12.5127 15.7139 12.5415C15.8429 12.5701 16.014 12.6204 16.2273 12.6921C16.4405 12.7639 16.6181 12.833 16.7598 12.8998C16.9015 12.9665 17.0534 13.0562 17.2154 13.1691C17.3774 13.2819 17.4999 13.4008 17.5829 13.5258C17.666 13.6508 17.7259 13.7985 17.7629 13.969Z" fill="white"/>
</g>
</g>
</g>
<defs>
<clipPath id="clip0_743_13114">
<rect x="0.0410156" y="0.92041" width="32" height="30.72" rx="15.36" fill="white"/>
</clipPath>
<clipPath id="clip1_743_13114">
<rect width="30.72" height="30.72" fill="white" transform="translate(0.0419922 0.92041)"/>
</clipPath>
<clipPath id="clip2_743_13114">
<rect width="30.72" height="30.72" fill="white" transform="translate(0.0429688 0.92041)"/>
</clipPath>
</defs>
</svg>
