<svg width="24" height="24" viewBox="0 0 24 24" fill="none" xmlns="http://www.w3.org/2000/svg">
<path fill-rule="evenodd" clip-rule="evenodd" d="M4.47961 1.59961H4.39961C4.03321 1.59961 3.71801 1.59961 3.43961 1.66521C3.00863 1.76819 2.61457 1.98848 2.3011 2.30167C1.98763 2.61486 1.76698 3.00872 1.66361 3.43961C1.59961 3.71801 1.59961 4.03161 1.59961 4.39961V8.39961C1.59961 8.76601 1.59961 9.08121 1.66521 9.35961C1.76819 9.79059 1.98848 10.1846 2.30167 10.4981C2.61486 10.8116 3.00872 11.0322 3.43961 11.1356C3.71801 11.1996 4.03161 11.1996 4.39961 11.1996H8.39961C8.76601 11.1996 9.08121 11.1996 9.35961 11.134C9.79059 11.031 10.1846 10.8107 10.4981 10.4975C10.8116 10.1844 11.0322 9.7905 11.1356 9.35961C11.1996 9.08121 11.1996 8.76761 11.1996 8.39961V4.39961C11.1996 4.03321 11.1996 3.71801 11.134 3.43961C11.031 3.00863 10.8107 2.61457 10.4975 2.3011C10.1844 1.98763 9.7905 1.76698 9.35961 1.66361C9.08121 1.59961 8.76761 1.59961 8.39961 1.59961H4.47961ZM3.81241 3.22201C3.88121 3.20601 3.98841 3.19961 4.47961 3.19961H8.31961C8.81241 3.19961 8.91801 3.20441 8.98681 3.22201C9.13054 3.25638 9.26194 3.32989 9.36643 3.43439C9.47093 3.53888 9.54444 3.67028 9.57881 3.81401C9.59481 3.88121 9.59961 3.98681 9.59961 4.47961V8.31961C9.59961 8.81241 9.59481 8.91801 9.57721 8.98681C9.54284 9.13054 9.46933 9.26194 9.36483 9.36643C9.26034 9.47093 9.12894 9.54444 8.98521 9.57881C8.91961 9.59321 8.81401 9.59961 8.31961 9.59961H4.47961C3.98681 9.59961 3.88121 9.59481 3.81241 9.57721C3.66868 9.54284 3.53728 9.46933 3.43279 9.36483C3.32829 9.26034 3.25478 9.12894 3.22041 8.98521C3.20601 8.91961 3.19961 8.81401 3.19961 8.31961V4.47961C3.19961 3.98681 3.20441 3.88121 3.22201 3.81241C3.25638 3.66868 3.32989 3.53728 3.43439 3.43279C3.53888 3.32829 3.67028 3.25478 3.81401 3.22041L3.81241 3.22201ZM15.6796 1.59961H15.5996C15.2332 1.59961 14.918 1.59961 14.6396 1.66521C14.2086 1.76819 13.8146 1.98848 13.5011 2.30167C13.1876 2.61486 12.967 3.00872 12.8636 3.43961C12.7996 3.71801 12.7996 4.03161 12.7996 4.39961V8.39961C12.7996 8.76601 12.7996 9.08121 12.8652 9.35961C12.9682 9.79059 13.1885 10.1846 13.5017 10.4981C13.8149 10.8116 14.2087 11.0322 14.6396 11.1356C14.918 11.1996 15.2316 11.1996 15.5996 11.1996H19.5996C19.966 11.1996 20.2812 11.1996 20.5596 11.134C20.9906 11.031 21.3846 10.8107 21.6981 10.4975C22.0116 10.1844 22.2322 9.7905 22.3356 9.35961C22.3996 9.08121 22.3996 8.76761 22.3996 8.39961V4.39961C22.3996 4.03321 22.3996 3.71801 22.334 3.43961C22.231 3.00863 22.0107 2.61457 21.6975 2.3011C21.3844 1.98763 20.9905 1.76698 20.5596 1.66361C20.2812 1.59961 19.9676 1.59961 19.5996 1.59961H15.6796ZM15.0124 3.22201C15.0812 3.20601 15.1884 3.19961 15.6796 3.19961H19.5196C20.0124 3.19961 20.118 3.20441 20.1868 3.22201C20.3305 3.25638 20.4619 3.32989 20.5664 3.43439C20.6709 3.53888 20.7444 3.67028 20.7788 3.81401C20.7948 3.88121 20.7996 3.98681 20.7996 4.47961V8.31961C20.7996 8.81241 20.7932 8.91801 20.7772 8.98681C20.7428 9.13054 20.6693 9.26194 20.5648 9.36643C20.4603 9.47093 20.3289 9.54444 20.1852 9.57881C20.118 9.59481 20.0124 9.59961 19.5196 9.59961H15.6796C15.1868 9.59961 15.0812 9.59481 15.0124 9.57721C14.8687 9.54284 14.7373 9.46933 14.6328 9.36483C14.5283 9.26034 14.4548 9.12894 14.4204 8.98521C14.406 8.91961 14.3996 8.81401 14.3996 8.31961V4.47961C14.3996 3.98681 14.4044 3.88121 14.422 3.81241C14.4564 3.66868 14.5299 3.53728 14.6344 3.43279C14.7389 3.32829 14.8703 3.25478 15.014 3.22041L15.0124 3.22201ZM4.39961 12.7996H8.39961C8.76601 12.7996 9.08121 12.7996 9.35961 12.8652C9.79059 12.9682 10.1846 13.1885 10.4981 13.5017C10.8116 13.8149 11.0322 14.2087 11.1356 14.6396C11.1996 14.918 11.1996 15.2316 11.1996 15.5996V19.5996C11.1996 19.966 11.1996 20.2812 11.134 20.5596C11.031 20.9906 10.8107 21.3846 10.4975 21.6981C10.1844 22.0116 9.7905 22.2322 9.35961 22.3356C9.08121 22.3996 8.76761 22.3996 8.39961 22.3996H4.39961C4.03321 22.3996 3.71801 22.3996 3.43961 22.334C3.00863 22.231 2.61457 22.0107 2.3011 21.6975C1.98763 21.3844 1.76698 20.9905 1.66361 20.5596C1.59961 20.2812 1.59961 19.9676 1.59961 19.5996V15.5996C1.59961 15.2332 1.59961 14.918 1.66521 14.6396C1.76819 14.2086 1.98848 13.8146 2.30167 13.5011C2.61486 13.1876 3.00872 12.967 3.43961 12.8636C3.71801 12.7996 4.03161 12.7996 4.39961 12.7996ZM4.47961 14.3996C3.98681 14.3996 3.88121 14.4044 3.81241 14.422C3.66868 14.4564 3.53728 14.5299 3.43279 14.6344C3.32829 14.7389 3.25478 14.8703 3.22041 15.014C3.20601 15.0796 3.19961 15.1852 3.19961 15.6796V19.5196C3.19961 20.0124 3.20441 20.118 3.22201 20.1868C3.25638 20.3305 3.32989 20.4619 3.43439 20.5664C3.53888 20.6709 3.67028 20.7444 3.81401 20.7788C3.88121 20.7948 3.98681 20.7996 4.47961 20.7996H8.31961C8.81241 20.7996 8.91801 20.7932 8.98681 20.7772C9.13054 20.7428 9.26194 20.6693 9.36643 20.5648C9.47093 20.4603 9.54444 20.3289 9.57881 20.1852C9.59481 20.118 9.59961 20.0124 9.59961 19.5196V15.6796C9.59961 15.1868 9.59481 15.0812 9.57721 15.0124C9.54284 14.8687 9.46933 14.7373 9.36483 14.6328C9.26034 14.5283 9.12894 14.4548 8.98521 14.4204C8.91961 14.406 8.81401 14.3996 8.31961 14.3996H4.47961ZM15.6796 12.7996H15.5996C15.2332 12.7996 14.918 12.7996 14.6396 12.8652C14.2086 12.9682 13.8146 13.1885 13.5011 13.5017C13.1876 13.8149 12.967 14.2087 12.8636 14.6396C12.7996 14.918 12.7996 15.2316 12.7996 15.5996V19.5996C12.7996 19.966 12.7996 20.2812 12.8652 20.5596C12.9682 20.9906 13.1885 21.3846 13.5017 21.6981C13.8149 22.0116 14.2087 22.2322 14.6396 22.3356C14.918 22.4012 15.2332 22.4012 15.5996 22.4012H19.5996C19.966 22.4012 20.2812 22.4012 20.5596 22.3356C20.9903 22.2324 21.384 22.012 21.6972 21.6988C22.0104 21.3856 22.2308 20.9919 22.334 20.5612C22.3996 20.2828 22.3996 19.9676 22.3996 19.6012V15.5996C22.3996 15.2332 22.3996 14.918 22.334 14.6396C22.231 14.2086 22.0107 13.8146 21.6975 13.5011C21.3844 13.1876 20.9905 12.967 20.5596 12.8636C20.2812 12.7996 19.9676 12.7996 19.5996 12.7996H15.6796ZM15.0124 14.422C15.0812 14.406 15.1884 14.3996 15.6796 14.3996H19.5196C20.0124 14.3996 20.118 14.4044 20.1868 14.422C20.3305 14.4564 20.4619 14.5299 20.5664 14.6344C20.6709 14.7389 20.7444 14.8703 20.7788 15.014C20.7948 15.0812 20.7996 15.1868 20.7996 15.6796V19.5196C20.7996 20.0124 20.7932 20.118 20.7772 20.1868C20.7428 20.3305 20.6693 20.4619 20.5648 20.5664C20.4603 20.6709 20.3289 20.7444 20.1852 20.7788C20.118 20.7948 20.0124 20.7996 19.5196 20.7996H15.6796C15.1868 20.7996 15.0812 20.7932 15.0124 20.7772C14.8687 20.7428 14.7373 20.6693 14.6328 20.5648C14.5283 20.4603 14.4548 20.3289 14.4204 20.1852C14.406 20.1196 14.3996 20.014 14.3996 19.5196V15.6796C14.3996 15.1868 14.4044 15.0812 14.422 15.0124C14.4564 14.8687 14.5299 14.7373 14.6344 14.6328C14.7389 14.5283 14.8703 14.4548 15.014 14.4204L15.0124 14.422Z" fill="white"/>
</svg>
