<svg width="20" height="21" viewBox="0 0 20 21" fill="none" xmlns="http://www.w3.org/2000/svg">
<path d="M13.1485 20.0028C14.0633 20.0072 14.9438 19.6543 15.6023 19.0193C16.2609 18.3842 16.6456 17.5172 16.6745 16.6028L17.0745 4.15981H18.9635C19.097 4.15981 19.2251 4.10677 19.3195 4.01234C19.4139 3.91792 19.467 3.78985 19.467 3.65631C19.467 3.52277 19.4139 3.39471 19.3195 3.30028C19.2251 3.20586 19.097 3.15281 18.9635 3.15281H13.6735V2.02281C13.6719 1.48889 13.4591 0.977282 13.0816 0.599739C12.704 0.222196 12.1924 0.00939529 11.6585 0.0078125H7.82948C7.29643 0.0107116 6.7861 0.224092 6.40964 0.601494C6.03317 0.978895 5.82106 1.48975 5.81949 2.02281V3.15581H0.504486C0.37095 3.15581 0.242877 3.20886 0.148453 3.30328C0.0540282 3.39771 0.000976562 3.52577 0.000976562 3.65931C0.000976562 3.79285 0.0540282 3.92091 0.148453 4.01534C0.242877 4.10976 0.37095 4.16281 0.504486 4.16281H2.39348L2.79349 16.6058C2.82265 17.5201 3.20741 18.387 3.86592 19.022C4.52443 19.6569 5.40471 20.0099 6.31949 20.0058L13.1485 20.0028ZM6.82648 2.02281C6.82727 1.75598 6.93362 1.50031 7.1223 1.31163C7.31098 1.12295 7.56665 1.0166 7.83348 1.01581H11.6625C11.9293 1.0166 12.185 1.12295 12.3737 1.31163C12.5623 1.50031 12.6687 1.75598 12.6695 2.02281V3.15581H6.82549L6.82648 2.02281ZM3.82648 16.5568L3.42648 4.13881H16.0965L15.6685 16.5568C15.6465 17.2109 15.3717 17.8309 14.9019 18.2866C14.4321 18.7422 13.8039 18.9979 13.1495 18.9998H6.34949C5.69376 19.0021 5.06314 18.7479 4.59242 18.2914C4.12171 17.8348 3.84823 17.2123 3.83047 16.5568H3.82648Z" fill="white"/>
</svg>
