<svg width="24" height="24" viewBox="0 0 24 24" fill="none" xmlns="http://www.w3.org/2000/svg">
<g clip-path="url(#clip0_371_3363)">
<path d="M23.0953 10.4559L13.5258 0.774723C13.3253 0.571838 13.0873 0.410895 12.8254 0.301089C12.5634 0.191283 12.2826 0.134766 11.9991 0.134766C11.7155 0.134766 11.4348 0.191283 11.1728 0.301089C10.9109 0.410895 10.6729 0.571838 10.4724 0.774723L0.910126 10.4477L0.900203 10.4578C0.6049 10.7579 0.402224 11.1384 0.316854 11.553C0.231484 11.9675 0.267104 12.3983 0.419376 12.7927C0.571649 13.1872 0.834003 13.5284 1.17449 13.7747C1.51499 14.021 1.91892 14.1618 2.33712 14.18C2.35967 14.18 2.38132 14.18 2.40387 14.18H2.78542V21.2979C2.78542 21.9756 3.05152 22.6255 3.52517 23.1047C3.99882 23.5838 4.64123 23.8531 5.31107 23.8531H9.05355C9.23507 23.8543 9.4097 23.7828 9.53931 23.6542C9.66893 23.5257 9.74302 23.3504 9.74539 23.1668V17.5829C9.74587 17.2738 9.86748 16.9774 10.0836 16.7588C10.2996 16.5402 10.5926 16.4172 10.8982 16.4167H13.1054C13.4106 16.4177 13.703 16.5409 13.9185 16.7595C14.1341 16.9781 14.2552 17.2742 14.2555 17.5829V23.1668C14.2555 23.3512 14.3279 23.5281 14.4568 23.6585C14.5857 23.7889 14.7605 23.8622 14.9428 23.8622H18.6853C19.017 23.8622 19.3454 23.7961 19.6518 23.6677C19.9582 23.5393 20.2367 23.3511 20.4712 23.1138C20.7057 22.8765 20.8918 22.5949 21.0187 22.2848C21.1456 21.9748 21.2109 21.6426 21.2109 21.307V14.1892H21.5618C21.9903 14.1912 22.4096 14.0643 22.7665 13.8246C23.1235 13.5849 23.4018 13.2431 23.5662 12.8429C23.7306 12.4426 23.7736 12.002 23.6898 11.5769C23.6059 11.1519 23.399 10.7617 23.0953 10.4559ZM22.1211 12.5603C22.0484 12.6342 21.9619 12.6928 21.8667 12.7328C21.7715 12.7727 21.6694 12.7932 21.5663 12.793H20.5254C20.3431 12.793 20.1683 12.8662 20.0394 12.9966C19.9105 13.127 19.8381 13.3039 19.8381 13.4883V21.307C19.8378 21.6163 19.7163 21.9128 19.5002 22.1314C19.284 22.3501 18.991 22.473 18.6853 22.4733H15.6302V17.5829C15.6302 17.2474 15.5648 16.9151 15.4379 16.6051C15.311 16.2951 15.1249 16.0135 14.8904 15.7762C14.6559 15.5389 14.3775 15.3507 14.071 15.2223C13.7646 15.0939 13.4362 15.0278 13.1045 15.0278H10.8955C10.5638 15.0278 10.2354 15.0939 9.92894 15.2223C9.62252 15.3507 9.34409 15.5389 9.10956 15.7762C8.87503 16.0135 8.689 16.2951 8.56207 16.6051C8.43514 16.9151 8.36982 17.2474 8.36982 17.5829V22.4715H5.31197C5.0067 22.471 4.71403 22.3482 4.498 22.13C4.28197 21.9118 4.16015 21.6159 4.1592 21.307V13.4883C4.1592 13.397 4.14142 13.3066 4.10687 13.2222C4.07233 13.1379 4.0217 13.0612 3.95788 12.9966C3.89405 12.9321 3.81828 12.8809 3.73489 12.8459C3.6515 12.811 3.56212 12.793 3.47186 12.793H2.44987H2.4174C2.26338 12.7905 2.1135 12.7422 1.98648 12.654C1.85945 12.5659 1.76092 12.4418 1.70318 12.2973C1.64544 12.1528 1.63106 11.9944 1.66183 11.8417C1.6926 11.689 1.76715 11.5488 1.87619 11.4388L11.4439 1.75845C11.5911 1.60966 11.7906 1.52608 11.9986 1.52608C12.2067 1.52608 12.4062 1.60966 12.5534 1.75845L22.1148 11.4315C22.1887 11.505 22.2476 11.5926 22.288 11.6892C22.3284 11.7859 22.3494 11.8896 22.35 11.9945C22.3506 12.0994 22.3307 12.2034 22.2914 12.3005C22.2521 12.3976 22.1942 12.4859 22.1211 12.5603Z" fill="white"/>
</g>
<defs>
<clipPath id="clip0_371_3363">
<rect width="24" height="24" fill="white"/>
</clipPath>
</defs>
</svg>
