<?xml version="1.0" encoding="UTF-8"?>
<svg version="1.1" xmlns="http://www.w3.org/2000/svg" width="32" height="32">
<path d="M0 0 C7.92 0 15.84 0 24 0 C24 7.92 24 15.84 24 24 C16.08 24 8.16 24 0 24 C0 16.08 0 8.16 0 0 Z M2 2 C2 8.6 2 15.2 2 22 C8.6 22 15.2 22 22 22 C22 15.4 22 8.8 22 2 C20.02 2 18.04 2 16 2 C16 3.98 16 5.96 16 8 C13.36 8 10.72 8 8 8 C8 6.02 8 4.04 8 2 C6.02 2 4.04 2 2 2 Z M10 2 C10 3.32 10 4.64 10 6 C11.32 6 12.64 6 14 6 C14 4.68 14 3.36 14 2 C12.68 2 11.36 2 10 2 Z " fill="#49DDBF" transform="translate(4,4)"/>
<path d="M0 0 C1.98 0 3.96 0 6 0 C6 7.92 6 15.84 6 24 C1.05 24 -3.9 24 -9 24 C-8.67 23.34 -8.34 22.68 -8 22 C-4.04 22 -0.08 22 4 22 C4 15.4 4 8.8 4 2 C2.68 2 1.36 2 0 2 C0 1.34 0 0.68 0 0 Z " fill="#A1EE9C" transform="translate(22,4)"/>
<path d="M0 0 C1.9453125 -0.29296875 1.9453125 -0.29296875 4.125 -0.1875 C5.40375 -0.125625 6.6825 -0.06375 8 0 C8 0.66 8 1.32 8 2 C7.34 2 6.68 2 6 2 C6 3.98 6 5.96 6 8 C3.36 8 0.72 8 -2 8 C-2.20086443 4.28400809 -2.1519437 3.22791555 0 0 Z M0 2 C0 3.32 0 4.64 0 6 C1.32 6 2.64 6 4 6 C4 4.68 4 3.36 4 2 C2.68 2 1.36 2 0 2 Z " fill="#6FE5B0" transform="translate(14,4)"/>
<path d="M0 0 C0.33 0 0.66 0 1 0 C1 1.98 1 3.96 1 6 C-3.95 6 -8.9 6 -14 6 C-13.67 5.34 -13.34 4.68 -13 4 C-9.04 4 -5.08 4 -1 4 C-0.67 2.68 -0.34 1.36 0 0 Z " fill="#92EBA2" transform="translate(27,22)"/>
<path d="M0 0 C3.3 0 6.6 0 10 0 C10 0.66 10 1.32 10 2 C6.7 2 3.4 2 0 2 C0 1.34 0 0.68 0 0 Z " fill="#76E6AE" transform="translate(8,22)"/>
<path d="M0 0 C1.98 0 3.96 0 6 0 C5.67 1.65 5.34 3.3 5 5 C4.67 4.01 4.34 3.02 4 2 C2.68 2 1.36 2 0 2 C0 1.34 0 0.68 0 0 Z " fill="#95ECA1" transform="translate(22,4)"/>
<path d="M0 0 C1.98 0 3.96 0 6 0 C6 0.66 6 1.32 6 2 C4.02 2 2.04 2 0 2 C0 1.34 0 0.68 0 0 Z " fill="#57E0BA" transform="translate(8,18)"/>
</svg>
