<svg width="24" height="24" viewBox="0 0 24 24" fill="none" xmlns="http://www.w3.org/2000/svg">
<path d="M11.4335 20.9365H5.5625C4.89946 20.9365 4.26357 20.6731 3.79473 20.2042C3.32589 19.7354 3.0625 19.0995 3.0625 18.4365V15.5005C3.0625 14.8374 3.32589 14.2015 3.79473 13.7327C4.26357 13.2638 4.89946 13.0005 5.5625 13.0005H11.4335C12.0965 13.0005 12.7324 13.2638 13.2013 13.7327C13.6701 14.2015 13.9335 14.8374 13.9335 15.5005V18.4335C13.9339 18.762 13.8695 19.0874 13.7441 19.3911C13.6186 19.6947 13.4345 19.9707 13.2023 20.2032C12.9701 20.4356 12.6944 20.62 12.3909 20.7459C12.0874 20.8717 11.7621 20.9365 11.4335 20.9365ZM5.5625 14.0005C5.16468 14.0005 4.78314 14.1585 4.50184 14.4398C4.22054 14.7211 4.0625 15.1026 4.0625 15.5005V18.4335C4.0625 18.8313 4.22054 19.2128 4.50184 19.4941C4.78314 19.7754 5.16468 19.9335 5.5625 19.9335H11.4335C11.8313 19.9335 12.2129 19.7754 12.4942 19.4941C12.7755 19.2128 12.9335 18.8313 12.9335 18.4335V15.5005C12.9335 15.1026 12.7755 14.7211 12.4942 14.4398C12.2129 14.1585 11.8313 14.0005 11.4335 14.0005H5.5625ZM18.4345 20.9365C17.7715 20.9365 17.1356 20.6731 16.6667 20.2042C16.1979 19.7354 15.9345 19.0995 15.9345 18.4365V15.5005C15.9345 14.8374 16.1979 14.2015 16.6667 13.7327C17.1356 13.2638 17.7715 13.0005 18.4345 13.0005C19.0975 13.0005 19.7334 13.2638 20.2023 13.7327C20.6711 14.2015 20.9345 14.8374 20.9345 15.5005V18.4345C20.9348 18.7629 20.8703 19.0882 20.7448 19.3918C20.6193 19.6953 20.4351 19.9712 20.203 20.2035C19.9708 20.4359 19.6951 20.6202 19.3917 20.746C19.0882 20.8717 18.763 20.9365 18.4345 20.9365ZM18.4345 14.0025C18.0367 14.0025 17.6551 14.1605 17.3738 14.4418C17.0925 14.7231 16.9345 15.1046 16.9345 15.5025V18.4365C16.9345 18.8343 17.0925 19.2158 17.3738 19.4971C17.6551 19.7784 18.0367 19.9365 18.4345 19.9365C18.8323 19.9365 19.2139 19.7784 19.4952 19.4971C19.7765 19.2158 19.9345 18.8343 19.9345 18.4365V15.5005C19.9345 15.1026 19.7765 14.7211 19.4952 14.4398C19.2139 14.1585 18.8323 14.0005 18.4345 14.0005V14.0025ZM18.4345 11.0005H5.5625C4.89946 11.0005 4.26357 10.7371 3.79473 10.2682C3.32589 9.79938 3.0625 9.16349 3.0625 8.50045V5.56445C3.0625 4.90141 3.32589 4.26553 3.79473 3.79669C4.26357 3.32785 4.89946 3.06445 5.5625 3.06445H18.4345C18.7628 3.06445 19.0879 3.12912 19.3912 3.25475C19.6945 3.38039 19.9701 3.56454 20.2023 3.79669C20.4344 4.02883 20.6186 4.30443 20.7442 4.60774C20.8698 4.91106 20.9345 5.23615 20.9345 5.56445V8.50045C20.9345 8.82876 20.8698 9.15385 20.7442 9.45716C20.6186 9.76048 20.4344 10.0361 20.2023 10.2682C19.9701 10.5004 19.6945 10.6845 19.3912 10.8102C19.0879 10.9358 18.7628 11.0005 18.4345 11.0005ZM5.5625 4.06445C5.16468 4.06445 4.78314 4.22249 4.50184 4.50379C4.22054 4.7851 4.0625 5.16663 4.0625 5.56445V8.50045C4.0625 8.89828 4.22054 9.27981 4.50184 9.56111C4.78314 9.84242 5.16468 10.0005 5.5625 10.0005H18.4345C18.8323 10.0005 19.2139 9.84242 19.4952 9.56111C19.7765 9.27981 19.9345 8.89828 19.9345 8.50045V5.56445C19.9345 5.16663 19.7765 4.7851 19.4952 4.50379C19.2139 4.22249 18.8323 4.06445 18.4345 4.06445H5.5625Z" fill="white" stroke="white" stroke-width="0.5"/>
</svg>
