<?xml version="1.0" encoding="UTF-8"?>
<svg version="1.1" xmlns="http://www.w3.org/2000/svg" width="32" height="32">
<path d="M0 0 C7.92 0 15.84 0 24 0 C24.22786458 3.45052083 24.45572917 6.90104167 24.68359375 10.3515625 C24.94018126 13.96364776 24.94018126 13.96364776 25.60546875 17.34375 C26 20 26 20 24.875 21.875 C22.46277487 23.32233508 20.7648665 23.22417836 18 23 C17.34 21.68 16.68 20.36 16 19 C14.39318359 19.01740234 14.39318359 19.01740234 12.75390625 19.03515625 C11.35677257 19.04453299 9.95963701 19.05363331 8.5625 19.0625 C7.85544922 19.07087891 7.14839844 19.07925781 6.41992188 19.08789062 C4.61306441 19.09653588 2.80612397 19.05220011 1 19 C0 18 0 18 -0.11352539 16.23413086 C-0.10828857 15.48526611 -0.10305176 14.73640137 -0.09765625 13.96484375 C-0.09515869 13.23644287 -0.09266113 12.50804199 -0.09008789 11.75756836 C-0.08098389 10.8269458 -0.07187988 9.89632324 -0.0625 8.9375 C-0.041875 5.988125 -0.02125 3.03875 0 0 Z M5 3 C8.63106761 6.05270463 8.63106761 6.05270463 12 7 C15.1668838 5.62507196 15.1668838 5.62507196 18 4 C18 3.67 18 3.34 18 3 C13.71 3 9.42 3 5 3 Z M3 6 C3 9.3 3 12.6 3 16 C5.06183633 16.08150744 7.12461349 16.1394194 9.1875 16.1875 C10.91033203 16.23970703 10.91033203 16.23970703 12.66796875 16.29296875 C16.32480815 15.97144125 18.17203072 15.32146732 21 13 C21.41725678 9.37400578 21.41725678 9.37400578 21 6 C19.96875 6.515625 18.9375 7.03125 17.875 7.5625 C13.15003571 9.58204119 9.86068245 8.68764351 5.125 6.9375 C4.42375 6.628125 3.7225 6.31875 3 6 Z " fill="#89E9A5" transform="translate(4,4)"/>
<path d="M0 0 C5.94 0 11.88 0 18 0 C17.67 0.99 17.34 1.98 17 3 C13.7 3.33 10.4 3.66 7 4 C6.67 4.99 6.34 5.98 6 7 C5.34 7 4.68 7 4 7 C3.67 9.97 3.34 12.94 3 16 C5.31 16 7.62 16 10 16 C9.34 16.99 8.68 17.98 8 19 C4.4375 19.25 4.4375 19.25 1 19 C0 18 0 18 -0.11352539 16.23413086 C-0.10828857 15.48526611 -0.10305176 14.73640137 -0.09765625 13.96484375 C-0.09515869 13.23644287 -0.09266113 12.50804199 -0.09008789 11.75756836 C-0.08098389 10.8269458 -0.07187988 9.89632324 -0.0625 8.9375 C-0.041875 5.988125 -0.02125 3.03875 0 0 Z " fill="#4EDFBD" transform="translate(4,4)"/>
<path d="M0 0 C1.98 0 3.96 0 6 0 C5.01 1.485 5.01 1.485 4 3 C1.375 3.1875 1.375 3.1875 -1 3 C-0.67 2.01 -0.34 1.02 0 0 Z " fill="#59E1B9" transform="translate(8,20)"/>
</svg>
