<svg width="24" height="24" viewBox="0 0 24 24" fill="none" xmlns="http://www.w3.org/2000/svg">
<g clip-path="url(#clip0_371_3394)">
<path d="M21.3329 9.99935H20.6663V5.99935C20.6663 5.82254 20.596 5.65297 20.471 5.52794C20.346 5.40292 20.1764 5.33268 19.9996 5.33268H3.9996C3.84174 5.33526 3.68809 5.28172 3.56601 5.18162C3.44393 5.08151 3.36133 4.94132 3.33294 4.78602V4.54602C3.36133 4.39071 3.44393 4.25052 3.56601 4.15042C3.68809 4.05031 3.84174 3.99677 3.9996 3.99935H19.7196C19.8964 3.99935 20.066 3.92911 20.191 3.80409C20.316 3.67906 20.3863 3.50949 20.3863 3.33268C20.3863 3.15587 20.316 2.9863 20.191 2.86128C20.066 2.73625 19.8964 2.66602 19.7196 2.66602H3.9996C3.46917 2.66602 2.96046 2.87673 2.58539 3.2518C2.21032 3.62687 1.9996 4.13558 1.9996 4.66602C1.99492 4.74595 1.99492 4.82608 1.9996 4.90602V18.6193C2.00222 18.9783 2.07551 19.3332 2.2153 19.6638C2.35509 19.9945 2.55863 20.2943 2.8143 20.5463C3.06997 20.7982 3.37277 20.9974 3.7054 21.1323C4.03803 21.2672 4.39399 21.3353 4.75294 21.3327H19.9996C20.1764 21.3327 20.346 21.2624 20.471 21.1374C20.596 21.0124 20.6663 20.8428 20.6663 20.666V16.666H21.3329C21.5097 16.666 21.6793 16.5958 21.8043 16.4708C21.9294 16.3457 21.9996 16.1762 21.9996 15.9993V10.666C21.9996 10.4892 21.9294 10.3196 21.8043 10.1946C21.6793 10.0696 21.5097 9.99935 21.3329 9.99935ZM19.3329 19.9993H4.75294C4.38214 20.0029 4.02492 19.86 3.759 19.6015C3.49307 19.3431 3.33995 18.9901 3.33294 18.6193V6.58602C3.54934 6.64873 3.77451 6.67575 3.9996 6.66602H19.3329V9.99935H14.6663C13.7822 9.99935 12.9344 10.3505 12.3092 10.9757C11.6841 11.6008 11.3329 12.4486 11.3329 13.3327C11.3329 14.2167 11.6841 15.0646 12.3092 15.6897C12.9344 16.3148 13.7822 16.666 14.6663 16.666H19.3329V19.9993ZM20.6663 15.3327H14.6663C14.1358 15.3327 13.6271 15.122 13.2521 14.7469C12.877 14.3718 12.6663 13.8631 12.6663 13.3327C12.6663 12.8022 12.877 12.2935 13.2521 11.9185C13.6271 11.5434 14.1358 11.3327 14.6663 11.3327H20.6663V15.3327Z" fill="white"/>
<path d="M15.3398 14.334C15.8921 14.334 16.3398 13.8863 16.3398 13.334C16.3398 12.7817 15.8921 12.334 15.3398 12.334C14.7876 12.334 14.3398 12.7817 14.3398 13.334C14.3398 13.8863 14.7876 14.334 15.3398 14.334Z" fill="white"/>
</g>
<defs>
<clipPath id="clip0_371_3394">
<rect width="24" height="24" fill="white"/>
</clipPath>
</defs>
</svg>
